<svg width="288" height="111" viewBox="0 0 288 111" fill="none" xmlns="http://www.w3.org/2000/svg">
<g clip-path="url(#clip0_807_1655)">
<mask id="mask0_807_1655" style="mask-type:luminance" maskUnits="userSpaceOnUse" x="0" y="0" width="288" height="112">
<path d="M288 0H0V112H288V0Z" fill="white"/>
</mask>
<g mask="url(#mask0_807_1655)">
<path d="M3.51606 68.434C3.04006 68.434 2.56973 68.3604 2.10506 68.213C1.6404 68.0657 1.26073 67.8617 0.966064 67.601L1.93506 65.714C2.13906 65.8954 2.3714 66.037 2.63206 66.139C2.90406 66.241 3.1704 66.292 3.43106 66.292C3.80506 66.292 4.09973 66.2014 4.31506 66.02C4.54173 65.85 4.74573 65.561 4.92706 65.153L5.40306 64.031L5.60706 63.742L8.88806 55.854H11.4381L7.30706 65.561C7.0124 66.2977 6.6724 66.8757 6.28706 67.295C5.91306 67.7144 5.49373 68.009 5.02906 68.179C4.57573 68.349 4.0714 68.434 3.51606 68.434ZM5.08006 65.357L1.00006 55.854H3.73706L6.89906 63.504L5.08006 65.357Z" fill="#5B5B5B"/>
<path d="M14.7222 65V57.418L15.3172 58.03H11.6282V55.854H20.4512V58.03H16.7622L17.3572 57.418V65H14.7222Z" fill="#5B5B5B"/>
<path d="M25.9541 65.136C24.9114 65.136 23.9934 64.932 23.2001 64.524C22.4181 64.116 21.8118 63.5607 21.3811 62.858C20.9504 62.144 20.7351 61.3337 20.7351 60.427C20.7351 59.509 20.9448 58.6987 21.3641 57.996C21.7948 57.282 22.3784 56.7267 23.1151 56.33C23.8518 55.922 24.6848 55.718 25.6141 55.718C26.5094 55.718 27.3141 55.9107 28.0281 56.296C28.7534 56.67 29.3258 57.214 29.7451 57.928C30.1644 58.6307 30.3741 59.475 30.3741 60.461C30.3741 60.563 30.3684 60.682 30.3571 60.818C30.3458 60.9427 30.3344 61.0617 30.3231 61.175H22.8941V59.628H28.9291L27.9091 60.087C27.9091 59.611 27.8128 59.1974 27.6201 58.846C27.4274 58.4947 27.1611 58.2227 26.8211 58.03C26.4811 57.826 26.0844 57.724 25.6311 57.724C25.1778 57.724 24.7754 57.826 24.4241 58.03C24.0841 58.2227 23.8178 58.5004 23.6251 58.863C23.4324 59.2144 23.3361 59.6337 23.3361 60.121V60.529C23.3361 61.0277 23.4438 61.4697 23.6591 61.855C23.8858 62.229 24.1974 62.518 24.5941 62.722C25.0021 62.9147 25.4781 63.011 26.0221 63.011C26.5094 63.011 26.9344 62.9374 27.2971 62.79C27.6711 62.6427 28.0111 62.4217 28.3171 62.127L29.7281 63.657C29.3088 64.133 28.7818 64.5014 28.1471 64.762C27.5124 65.0114 26.7814 65.136 25.9541 65.136Z" fill="#5B5B5B"/>
<path d="M32.4067 65V55.854H41.5017V65H38.8497V57.435L39.4447 58.03H34.4467L35.0417 57.435V65H32.4067Z" fill="#5B5B5B"/>
<path d="M42.8884 64.983L43.0244 62.807C43.0924 62.8184 43.1604 62.8297 43.2284 62.841C43.2964 62.841 43.3588 62.841 43.4154 62.841C43.7328 62.841 43.9821 62.7504 44.1634 62.569C44.3448 62.3877 44.4808 62.144 44.5714 61.838C44.6621 61.5207 44.7244 61.1637 44.7584 60.767C44.8038 60.3704 44.8378 59.9567 44.8604 59.526L44.9964 55.854H52.8164V65H50.1644V57.384L50.7594 58.03H46.7474L47.3084 57.35L47.1894 59.645C47.1554 60.461 47.0874 61.209 46.9854 61.889C46.8948 62.569 46.7418 63.1584 46.5264 63.657C46.3111 64.1444 46.0221 64.524 45.6594 64.796C45.2968 65.0567 44.8321 65.187 44.2654 65.187C44.0614 65.187 43.8461 65.17 43.6194 65.136C43.3928 65.102 43.1491 65.051 42.8884 64.983Z" fill="#5B5B5B"/>
<path d="M59.8379 65.136C58.7952 65.136 57.8772 64.932 57.0839 64.524C56.3019 64.116 55.6956 63.5607 55.2649 62.858C54.8342 62.144 54.6189 61.3337 54.6189 60.427C54.6189 59.509 54.8286 58.6987 55.2479 57.996C55.6786 57.282 56.2622 56.7267 56.9989 56.33C57.7356 55.922 58.5686 55.718 59.4979 55.718C60.3932 55.718 61.1979 55.9107 61.9119 56.296C62.6372 56.67 63.2096 57.214 63.6289 57.928C64.0482 58.6307 64.2579 59.475 64.2579 60.461C64.2579 60.563 64.2522 60.682 64.2409 60.818C64.2296 60.9427 64.2182 61.0617 64.2069 61.175H56.7779V59.628H62.8129L61.7929 60.087C61.7929 59.611 61.6966 59.1974 61.5039 58.846C61.3112 58.4947 61.0449 58.2227 60.7049 58.03C60.3649 57.826 59.9682 57.724 59.5149 57.724C59.0616 57.724 58.6592 57.826 58.3079 58.03C57.9679 58.2227 57.7016 58.5004 57.5089 58.863C57.3162 59.2144 57.2199 59.6337 57.2199 60.121V60.529C57.2199 61.0277 57.3276 61.4697 57.5429 61.855C57.7696 62.229 58.0812 62.518 58.4779 62.722C58.8859 62.9147 59.3619 63.011 59.9059 63.011C60.3932 63.011 60.8182 62.9374 61.1809 62.79C61.5549 62.6427 61.8949 62.4217 62.2009 62.127L63.6119 63.657C63.1926 64.133 62.6656 64.5014 62.0309 64.762C61.3962 65.0114 60.6652 65.136 59.8379 65.136Z" fill="#5B5B5B"/>
<path d="M66.2905 65V55.854H68.9255V59.424H72.9035V55.854H75.5555V65H72.9035V61.583H68.9255V65H66.2905Z" fill="#5B5B5B"/>
<path d="M78.0942 65V55.854H80.7292V61.294L85.1832 55.854H87.6142V65H84.9792V59.56L80.5422 65H78.0942Z" fill="#5B5B5B"/>
<path d="M94.6348 65.136C93.5921 65.136 92.6741 64.932 91.8808 64.524C91.0988 64.116 90.4924 63.5607 90.0618 62.858C89.6311 62.144 89.4158 61.3337 89.4158 60.427C89.4158 59.509 89.6254 58.6987 90.0448 57.996C90.4754 57.282 91.0591 56.7267 91.7958 56.33C92.5324 55.922 93.3654 55.718 94.2948 55.718C95.1901 55.718 95.9948 55.9107 96.7088 56.296C97.4341 56.67 98.0064 57.214 98.4258 57.928C98.8451 58.6307 99.0548 59.475 99.0548 60.461C99.0548 60.563 99.0491 60.682 99.0378 60.818C99.0264 60.9427 99.0151 61.0617 99.0038 61.175H91.5748V59.628H97.6098L96.5898 60.087C96.5898 59.611 96.4934 59.1974 96.3008 58.846C96.1081 58.4947 95.8418 58.2227 95.5018 58.03C95.1618 57.826 94.7651 57.724 94.3118 57.724C93.8584 57.724 93.4561 57.826 93.1048 58.03C92.7648 58.2227 92.4984 58.5004 92.3058 58.863C92.1131 59.2144 92.0168 59.6337 92.0168 60.121V60.529C92.0168 61.0277 92.1244 61.4697 92.3398 61.855C92.5664 62.229 92.8781 62.518 93.2748 62.722C93.6828 62.9147 94.1588 63.011 94.7028 63.011C95.1901 63.011 95.6151 62.9374 95.9778 62.79C96.3518 62.6427 96.6918 62.4217 96.9978 62.127L98.4088 63.657C97.9894 64.133 97.4624 64.5014 96.8278 64.762C96.1931 65.0114 95.4621 65.136 94.6348 65.136Z" fill="#5B5B5B"/>
<path d="M110.254 65.136C109.268 65.136 108.39 64.9377 107.619 64.541C106.848 64.133 106.242 63.572 105.8 62.858C105.369 62.144 105.154 61.3337 105.154 60.427C105.154 59.509 105.369 58.6987 105.8 57.996C106.242 57.282 106.848 56.7267 107.619 56.33C108.39 55.922 109.268 55.718 110.254 55.718C111.217 55.718 112.056 55.922 112.77 56.33C113.484 56.7267 114.011 57.299 114.351 58.047L112.294 59.152C112.056 58.7214 111.756 58.404 111.393 58.2C111.042 57.996 110.656 57.894 110.237 57.894C109.784 57.894 109.376 57.996 109.013 58.2C108.65 58.404 108.361 58.693 108.146 59.067C107.942 59.441 107.84 59.8944 107.84 60.427C107.84 60.9597 107.942 61.413 108.146 61.787C108.361 62.161 108.65 62.45 109.013 62.654C109.376 62.858 109.784 62.96 110.237 62.96C110.656 62.96 111.042 62.8637 111.393 62.671C111.756 62.467 112.056 62.144 112.294 61.702L114.351 62.824C114.011 63.5607 113.484 64.133 112.77 64.541C112.056 64.9377 111.217 65.136 110.254 65.136Z" fill="#5B5B5B"/>
<path d="M122.018 68.434C121.542 68.434 121.072 68.3604 120.607 68.213C120.142 68.0657 119.763 67.8617 119.468 67.601L120.437 65.714C120.641 65.8954 120.873 66.037 121.134 66.139C121.406 66.241 121.672 66.292 121.933 66.292C122.307 66.292 122.602 66.2014 122.817 66.02C123.044 65.85 123.248 65.561 123.429 65.153L123.905 64.031L124.109 63.742L127.39 55.854H129.94L125.809 65.561C125.514 66.2977 125.174 66.8757 124.789 67.295C124.415 67.7144 123.996 68.009 123.531 68.179C123.078 68.349 122.573 68.434 122.018 68.434ZM123.582 65.357L119.502 55.854H122.239L125.401 63.504L123.582 65.357Z" fill="#5B5B5B"/>
<path d="M131.219 65V55.854H133.99L137.441 62.11H136.336L140.025 55.854H142.507L142.541 65H140.144V58.574L140.552 58.846L137.407 64.116H136.285L133.123 58.659L133.616 58.54V65H131.219Z" fill="#5B5B5B"/>
<path d="M149.366 65.136C148.391 65.136 147.524 64.932 146.765 64.524C146.017 64.116 145.422 63.5607 144.98 62.858C144.549 62.144 144.334 61.3337 144.334 60.427C144.334 59.509 144.549 58.6987 144.98 57.996C145.422 57.282 146.017 56.7267 146.765 56.33C147.524 55.922 148.391 55.718 149.366 55.718C150.329 55.718 151.19 55.922 151.95 56.33C152.709 56.7267 153.304 57.2764 153.735 57.979C154.165 58.6817 154.381 59.4977 154.381 60.427C154.381 61.3337 154.165 62.144 153.735 62.858C153.304 63.5607 152.709 64.116 151.95 64.524C151.19 64.932 150.329 65.136 149.366 65.136ZM149.366 62.96C149.808 62.96 150.204 62.858 150.556 62.654C150.907 62.45 151.185 62.161 151.389 61.787C151.593 61.4017 151.695 60.9484 151.695 60.427C151.695 59.8944 151.593 59.441 151.389 59.067C151.185 58.693 150.907 58.404 150.556 58.2C150.204 57.996 149.808 57.894 149.366 57.894C148.924 57.894 148.527 57.996 148.176 58.2C147.824 58.404 147.541 58.693 147.326 59.067C147.122 59.441 147.02 59.8944 147.02 60.427C147.02 60.9484 147.122 61.4017 147.326 61.787C147.541 62.161 147.824 62.45 148.176 62.654C148.527 62.858 148.924 62.96 149.366 62.96Z" fill="#5B5B5B"/>
<path d="M156.205 65V55.854H158.976L162.427 62.11H161.322L165.011 55.854H167.493L167.527 65H165.13V58.574L165.538 58.846L162.393 64.116H161.271L158.109 58.659L158.602 58.54V65H156.205Z" fill="#5B5B5B"/>
<path d="M0 101.41V75.4979H22.1784V81.1615H7.39281V85.3444H14.2549C17.49 85.3444 19.9543 86.0107 21.6477 87.3433C23.3663 88.6759 24.2257 90.6008 24.2257 93.1179C24.2257 95.7091 23.2652 97.745 21.3444 99.2257C19.4235 100.682 16.7318 101.41 13.2691 101.41H0ZM7.39281 96.1533H12.7763C14.0147 96.1533 14.9625 95.9065 15.6197 95.4129C16.3021 94.9194 16.6433 94.2161 16.6433 93.303C16.6433 91.4768 15.3543 90.5637 12.7763 90.5637H7.39281V96.1533Z" fill="#5B5B5B"/>
<path d="M25.1877 101.41L36.9024 75.4979H44.2953L56.0479 101.41H48.2381L39.0634 79.0885H42.0206L32.8459 101.41H25.1877ZM31.5948 96.3754L33.5283 90.9709H46.4941L48.4277 96.3754H31.5948Z" fill="#5B5B5B"/>
<path d="M56.9661 99.4108L59.2029 94.2654C60.3403 94.833 61.5282 95.2649 62.7666 95.561C64.0051 95.8571 65.2056 96.0299 66.3683 96.0793C67.5309 96.1286 68.5798 96.0546 69.5149 95.8572C70.4754 95.635 71.2336 95.3019 71.7896 94.8577C72.3457 94.4135 72.6237 93.8336 72.6237 93.1179C72.6237 92.3282 72.2825 91.7606 71.6001 91.4151C70.943 91.045 70.071 90.8599 68.9842 90.8599H62.1979V85.4924H68.3776C69.3886 85.4924 70.1721 85.295 70.7281 84.9002C71.2842 84.5053 71.5622 83.9747 71.5622 83.3084C71.5622 82.6668 71.3221 82.1609 70.8419 81.7907C70.3616 81.3959 69.7171 81.1244 68.9083 80.9764C68.0996 80.8036 67.1897 80.7419 66.1787 80.7913C65.1677 80.8406 64.1188 81.0257 63.032 81.3465C61.9452 81.6427 60.8963 82.0499 59.8853 82.5681L57.6864 77.0896C59.4809 76.2259 61.3639 75.6336 63.3353 75.3128C65.3067 74.992 67.2276 74.9179 69.0979 75.0907C70.9682 75.2634 72.6616 75.6706 74.1781 76.3122C75.6946 76.9292 76.8951 77.7559 77.7797 78.7924C78.6896 79.8289 79.1445 81.0504 79.1445 82.457C79.1445 83.6909 78.8033 84.7891 78.1209 85.7515C77.4385 86.714 76.516 87.4667 75.3534 88.0096C74.1907 88.5525 72.8512 88.8239 71.3347 88.8239L71.5243 87.2692C73.2682 87.2692 74.7847 87.5654 76.0737 88.1576C77.388 88.7499 78.3989 89.5643 79.1066 90.6008C79.8396 91.6125 80.2061 92.7848 80.2061 94.1174C80.2061 95.3759 79.8649 96.4988 79.1825 97.4859C78.5253 98.4483 77.6028 99.2627 76.4149 99.929C75.227 100.595 73.8622 101.089 72.3204 101.41C70.8039 101.755 69.1737 101.916 67.4298 101.891C65.6858 101.891 63.9166 101.681 62.1221 101.262C60.3529 100.842 58.6342 100.225 56.9661 99.4108Z" fill="#5B5B5B"/>
<path d="M81.6111 101.41L93.3258 75.4979H100.719L112.471 101.41H104.662L95.4868 79.0885H98.4439L89.2693 101.41H81.6111ZM88.0182 96.3754L89.9517 90.9709H102.918L104.851 96.3754H88.0182Z" fill="#5B5B5B"/>
<path d="M116.871 101.854C116.366 101.854 115.822 101.817 115.241 101.743C114.685 101.669 114.091 101.558 113.459 101.41L113.876 95.4129C114.23 95.487 114.571 95.524 114.9 95.524C115.936 95.524 116.72 95.1292 117.25 94.3395C117.781 93.5251 118.148 92.3899 118.35 90.9339C118.577 89.4779 118.716 87.7751 118.767 85.8256L119.146 75.4979H140.528V101.41H133.135V79.6808L134.766 81.3095H124.037L125.553 79.6067L125.364 85.5294C125.288 88.0466 125.111 90.317 124.833 92.3405C124.555 94.3395 124.112 96.0546 123.506 97.4859C122.899 98.8925 122.053 99.9784 120.966 100.743C119.904 101.484 118.539 101.854 116.871 101.854Z" fill="#5B5B5B"/>
<path d="M159.74 83.7526C162.975 83.7526 165.477 84.456 167.246 85.8626C169.041 87.2692 169.938 89.3792 169.938 92.1925C169.938 95.2279 168.939 97.5229 166.943 99.0776C164.946 100.632 162.216 101.41 158.754 101.41H146.205V75.4979H153.598V83.7526H159.74ZM158.261 96.1533C159.525 96.1533 160.523 95.8201 161.256 95.1538C162.014 94.4875 162.393 93.5498 162.393 92.3405C162.393 91.1067 162.014 90.2429 161.256 89.7494C160.523 89.2311 159.525 88.972 158.261 88.972H153.598V96.1533H158.261Z" fill="#5B5B5B"/>
<path d="M176.702 101.41V79.6808L178.37 81.3095H168.551V75.4979H192.208V81.3095H182.427L184.095 79.6808V101.41H176.702Z" fill="#5B5B5B"/>
<path d="M196.037 95.598C197.528 96.0176 198.741 96.1533 199.676 96.0052C200.637 95.8325 201.484 95.2155 202.216 94.1544L203.505 92.3035L204.15 91.6002L212.415 75.4979H219.732L208.737 95.524C207.651 97.4982 206.349 99.0283 204.832 100.114C203.341 101.2 201.698 101.817 199.904 101.965C198.109 102.113 196.226 101.792 194.255 101.002L196.037 95.598ZM204.036 97.4859L191.904 75.4979H199.828L208.131 92.3035L204.036 97.4859Z" fill="#5B5B5B"/>
<path d="M222.14 101.41V75.4979H228.319L239.276 93.1179H236.015L246.745 75.4979H252.924L253 101.41H246.062L246.024 85.7515H247.199L239.2 98.8555H235.864L227.637 85.7515H229.04V101.41H222.14Z" fill="#5B5B5B"/>
<path d="M182 67H176V37.8L234 0L288 37.8V111H260V105H282V40.706L234 7L182 40.5V67Z" fill="url(#paint0_linear_807_1655)"/>
</g>
</g>
<defs>
<linearGradient id="paint0_linear_807_1655" x1="288" y1="56" x2="176" y2="56" gradientUnits="userSpaceOnUse">
<stop stop-color="#A5E427"/>
<stop offset="1" stop-color="#1EBC61"/>
</linearGradient>
<clipPath id="clip0_807_1655">
<rect width="288" height="111" fill="white"/>
</clipPath>
</defs>
</svg>
