<svg width="48" height="48" viewBox="0 0 48 48" fill="none" xmlns="http://www.w3.org/2000/svg">
<path d="M44.7516 6.0304C44.6705 5.73428 44.4944 5.47301 44.2502 5.28682C44.0061 5.10063 43.7075 4.99985 43.4005 5C43.1316 5 36.7849 5.056 35.1159 9.8552C34.0869 12.8162 35.1117 15.0996 36.32 16.305C36.061 16.7726 35.8426 17.285 35.6802 17.8212C34.7321 16.5705 33.6261 15.4477 32.3899 14.4808C33.0648 12.077 32.6517 7.7104 28.5886 5.9128C27.2165 5.308 25.6287 5 23.866 5C17.8147 5 11.4609 8.584 11.1921 8.7366C11.0123 8.83914 10.8574 8.98029 10.7387 9.14987C10.6199 9.31946 10.5403 9.51326 10.5055 9.71732C10.4707 9.92138 10.4815 10.1306 10.5373 10.33C10.5931 10.5293 10.6924 10.7138 10.8281 10.8702C10.9121 10.9654 11.5729 11.7214 12.6062 12.7672C6.71032 15.906 3 21.9848 3 28.8C3 38.8352 11.1655 47 21.2016 47C31.2376 47 39.4031 38.8352 39.4031 28.8C39.4031 26.2884 38.8571 23.8552 37.891 21.611C37.961 20.225 38.3082 18.2762 38.8487 17.495C39.0153 17.5132 39.1777 17.5594 39.3457 17.5594C41.6727 17.5594 43.8107 15.6806 44.4267 13.0934C45.4656 8.7394 44.781 6.1396 44.7516 6.0304ZM23.866 7.8C25.2367 7.8 26.445 8.0268 27.4559 8.4734C29.5939 9.4198 29.9145 11.4274 29.8319 12.7644C28.0821 11.825 26.1894 11.1803 24.23 10.8562C23.8635 10.7959 23.488 10.8836 23.1862 11.1001C22.8844 11.3165 22.6809 11.644 22.6206 12.0105C22.5602 12.377 22.648 12.7524 22.8645 13.0542C23.0809 13.356 23.4085 13.5595 23.775 13.6198C25.5643 13.9138 27.2893 14.5466 28.8476 15.4412C27.5637 17.5412 26.0474 18.132 23.8912 17.4936C20.3965 16.4604 16.2087 12.4732 14.1744 10.362C16.3011 9.3652 20.2229 7.8 23.866 7.8ZM5.80024 28.8C5.80024 27.3496 6.00746 25.9426 6.38409 24.6H15.6011C16.3725 24.6 17.0012 25.2286 17.0012 26C17.0012 26.7714 16.3725 27.4 15.6011 27.4H11.4007C11.0294 27.4 10.6733 27.5475 10.4107 27.81C10.1481 28.0726 10.0006 28.4287 10.0006 28.8C10.0006 29.5714 9.37194 30.2 8.60048 30.2H5.87025C5.82824 29.738 5.80024 29.2718 5.80024 28.8ZM6.39669 33H8.60048C9.46899 32.9991 10.3159 32.7296 11.0251 32.2282C11.7343 31.7269 12.271 31.0184 12.5614 30.2H15.6011C17.9169 30.2 19.8014 28.3156 19.8014 26C19.8014 23.6844 17.9169 21.8 15.6011 21.8H7.47198C9.03908 18.7172 11.6059 16.2572 14.7526 14.8224C17.1202 16.9588 20.2173 19.3276 23.0959 20.1788C23.9052 20.4182 24.6907 20.54 25.4313 20.54C28.3702 20.54 30.1385 18.6836 31.1606 17.068C33.8545 19.3647 35.6755 22.5188 36.3172 26H33.8026C31.4868 26 29.6023 27.8844 29.6023 30.2V31.6H26.802C23.7134 31.6 21.2016 34.1116 21.2016 37.2C21.2016 40.2884 23.7134 42.8 26.802 42.8H27.5805C25.6343 43.6904 23.4781 44.2 21.2016 44.2C14.1674 44.2 8.23225 39.454 6.39669 33ZM31.7389 40H26.802C25.2577 40 24.0018 38.7442 24.0018 37.2C24.0018 35.6558 25.2577 34.4 26.802 34.4H31.0024C31.3737 34.4 31.7299 34.2525 31.9924 33.99C32.255 33.7274 32.4025 33.3713 32.4025 33V30.2C32.4025 29.4286 33.0312 28.8 33.8026 28.8H36.6029C36.6029 33.2142 34.7267 37.1902 31.7389 40ZM41.7035 12.4452C41.3101 14.0972 39.7811 15.227 38.5336 14.5382C38.1878 14.3464 36.9613 13.0738 37.7608 10.775C38.4426 8.8122 40.743 8.143 42.1852 7.9162C42.2356 8.8822 42.1852 10.4236 41.7035 12.4452Z" fill="#333333"/>
</svg>
