<svg width="48" height="48" viewBox="0 0 48 48" fill="none" xmlns="http://www.w3.org/2000/svg">
<path d="M40.5366 33.3598C40.8453 32.1029 41.0009 30.8152 41 29.5231C41 29.2883 40.681 25.2386 40.3939 21.6432C40.2466 19.7988 37.7879 19.1672 36.7207 20.6995L34.6882 23.6179C34.6882 23.6179 36.2525 14.2408 31.1246 9.27074C26.9059 5.18179 21.3154 3.20023 15.8624 4.30032C16.6281 4.90132 17.3351 5.56966 17.9744 6.29684C20.3913 9.04312 19.4943 13.2243 16.1879 14.8853C10.7297 17.6273 7.00009 23.153 7 29.523C6.99991 38.6142 14.7218 46.0529 24.1016 45.9997C28.759 45.9733 32.9725 44.1316 36.0273 41.1677M31.4613 39.754C31.4613 43.7558 28.1207 46 24 46C19.8793 46 16.5388 43.7558 16.5388 39.754C16.5388 34.3761 24 29.5234 24 29.5234C24 29.5234 31.4613 34.2629 31.4613 39.754Z" stroke="#333333" stroke-width="3" stroke-miterlimit="10" stroke-linecap="round" stroke-linejoin="round"/>
</svg>
