<svg width="48" height="48" viewBox="0 0 48 48" fill="none" xmlns="http://www.w3.org/2000/svg">
<path d="M21.1875 2.8125C23.0588 2.8125 24.6485 4.03753 25.1991 5.72738C18.9794 6.52219 14.1562 11.8491 14.1562 18.2812C14.1562 19.7698 14.4165 21.705 14.8652 23.6301C12.7625 24.8469 11.3438 27.1195 11.3438 29.7188C11.3438 33.1511 13.8158 36.017 17.0732 36.6292C17.83 41.4223 23.1699 48 26.8125 48C30.5064 48 35.8061 41.3513 36.5518 36.6292C39.8092 36.017 42.2812 33.1511 42.2812 29.7188C42.2812 27.1195 40.8625 24.8469 38.7598 23.6301C39.2085 21.705 39.4688 19.7698 39.4688 18.2812C39.4688 11.7333 34.4704 6.33094 28.0887 5.68903C27.4603 2.45203 24.6055 0 21.1875 0C17.1929 0 14.6381 1.23825 13.4951 1.55063C10.9878 2.38715 8.3619 2.81326 5.71875 2.8125V5.625C8.66953 5.625 11.5851 5.15184 14.3845 4.21875C15.5786 3.88875 17.7371 2.8125 21.1875 2.8125ZM36.6562 18.2812C36.6562 19.485 36.4412 21.1113 36.0783 22.7379C32.9129 22.3646 29.9617 24.134 28.7603 27.0164L31.3563 28.0985C32.0142 26.5199 33.5426 25.5 35.25 25.5C37.5762 25.5 39.4688 27.3925 39.4688 29.7188C39.4688 32.045 37.5762 33.9375 35.25 33.9375H33.8438V35.3438C33.8438 39.388 28.6683 45.1875 26.8125 45.1875C24.9665 45.1875 19.7812 39.4053 19.7812 35.3438V33.9375H18.375C16.0488 33.9375 14.1562 32.045 14.1562 29.7188C14.1562 27.3925 16.0488 25.5 18.375 25.5C20.0824 25.5 21.6108 26.5199 22.2687 28.0984L24.8647 27.0163C23.6625 24.1318 20.7096 22.3648 17.5467 22.7378C17.1838 21.1113 16.9688 19.485 16.9688 18.2812C16.9688 12.8534 21.3847 8.4375 26.8125 8.4375C32.2403 8.4375 36.6562 12.8534 36.6562 18.2812Z" fill="#333333"/>
</svg>
