<svg width="48" height="48" viewBox="0 0 48 48" fill="none" xmlns="http://www.w3.org/2000/svg">
<g clip-path="url(#clip0_417_3123)">
<path fill-rule="evenodd" clip-rule="evenodd" d="M13.0346 34.8135C13.0118 34.7104 13.0002 34.6054 13 34.5C12.9991 32.802 13.4297 31.1291 14.2549 29.625C15.08 28.1209 16.2751 26.8305 17.7374 25.8645V8.994C17.7374 7.40429 18.3987 5.87969 19.5758 4.7556C20.7529 3.63151 22.3494 3 24.0141 3H24.0157C25.6803 3.0004 27.2765 3.63203 28.4536 4.75604C29.6306 5.88005 30.292 7.40441 30.2924 8.994V25.884C31.7465 26.8512 32.9341 28.1399 33.7538 29.6402C34.5735 31.1404 35.001 32.8078 35 34.5C35 40.296 30.0772 45 24.0157 45C18.0625 45 13.2073 40.464 13.0346 34.8135ZM20.8585 26.4495C20.9095 26.7504 20.8634 27.059 20.7261 27.3342C20.5889 27.6094 20.3672 27.8382 20.0904 27.99C18.9315 28.6247 17.9611 29.531 17.271 30.6233C16.5809 31.7157 16.1938 32.958 16.1462 34.233C16.1619 34.32 16.1714 34.4085 16.1714 34.5C16.1714 36.4876 16.9975 38.3939 18.4683 39.8001C19.9392 41.2064 21.9344 41.9976 24.0157 42C26.0968 41.9972 28.0916 41.2058 29.5621 39.7996C31.0325 38.3934 31.8585 36.4873 31.8585 34.5C31.8588 33.1789 31.4938 31.8812 30.8004 30.7381C30.107 29.595 29.1098 28.647 27.9096 27.99C27.6245 27.8334 27.398 27.5953 27.2622 27.3092C27.1263 27.0231 27.088 26.7035 27.1525 26.3955L27.1509 26.3535V8.994C27.1509 8.19994 26.8206 7.43841 26.2326 6.87692C25.6447 6.31544 24.8472 6 24.0157 6H24.0141C23.1826 6 22.3852 6.31544 21.7972 6.87692C21.2092 7.43841 20.8789 8.19994 20.8789 8.994V26.2095C20.8789 26.2905 20.8711 26.3715 20.8585 26.4495ZM25.5865 30.2565C26.6296 30.6145 27.5075 31.3119 28.0659 32.2264C28.6243 33.1408 28.8276 34.2139 28.6402 35.2572C28.4528 36.3005 27.8866 37.2475 27.0409 37.9319C26.1953 38.6163 25.1242 38.9945 24.0157 39C22.9037 39.0006 21.8272 38.6256 20.9768 37.9413C20.1264 37.257 19.5568 36.3076 19.3687 35.2609C19.1807 34.2142 19.3864 33.1378 19.9493 32.2219C20.5123 31.3061 21.3963 30.6099 22.445 30.2565V10.5C22.445 10.1022 22.6104 9.72064 22.905 9.43934C23.1996 9.15804 23.5991 9 24.0157 9C24.4323 9 24.8318 9.15804 25.1264 9.43934C25.421 9.72064 25.5865 10.1022 25.5865 10.5V30.2565Z" fill="#333333"/>
<path d="M35.4233 17.5607C35.6944 17.842 36.0621 18 36.4454 18H46.5546C46.9379 18 47.3056 17.842 47.5767 17.5607C47.8477 17.2794 48 16.8978 48 16.5C48 16.1022 47.8477 15.7206 47.5767 15.4393C47.3056 15.158 46.9379 15 46.5546 15H36.4454C36.0621 15 35.6944 15.158 35.4233 15.4393C35.1523 15.7206 35 16.1022 35 16.5C35 16.8978 35.1523 17.2794 35.4233 17.5607Z" fill="#333333"/>
<path d="M35.4233 23.5607C35.6944 23.842 36.0621 24 36.4454 24H42.2213C42.6046 24 42.9722 23.842 43.2433 23.5607C43.5144 23.2794 43.6667 22.8978 43.6667 22.5C43.6667 22.1022 43.5144 21.7206 43.2433 21.4393C42.9722 21.158 42.6046 21 42.2213 21H36.4454C36.0621 21 35.6944 21.158 35.4233 21.4393C35.1523 21.7206 35 22.1022 35 22.5C35 22.8978 35.1523 23.2794 35.4233 23.5607Z" fill="#333333"/>
<path d="M35.4233 11.5607C35.6944 11.842 36.0621 12 36.4454 12H42.2213C42.6046 12 42.9722 11.842 43.2433 11.5607C43.5144 11.2794 43.6667 10.8978 43.6667 10.5C43.6667 10.1022 43.5144 9.72064 43.2433 9.43934C42.9722 9.15804 42.6046 9 42.2213 9H36.4454C36.0621 9 35.6944 9.15804 35.4233 9.43934C35.1523 9.72064 35 10.1022 35 10.5C35 10.8978 35.1523 11.2794 35.4233 11.5607Z" fill="#333333"/>
<path d="M0.423256 17.5607C0.694262 17.842 1.06183 18 1.44509 18H11.552C11.9353 18 12.3028 17.842 12.5739 17.5607C12.8449 17.2794 12.9971 16.8978 12.9971 16.5C12.9971 16.1022 12.8449 15.7206 12.5739 15.4393C12.3028 15.158 11.9353 15 11.552 15H1.44509C1.06183 15 0.694262 15.158 0.423256 15.4393C0.15225 15.7206 0 16.1022 0 16.5C0 16.8978 0.15225 17.2794 0.423256 17.5607Z" fill="#333333"/>
<path d="M4.75852 11.5607C5.02952 11.842 5.39709 12 5.78035 12H11.5549C11.9382 12 12.3057 11.842 12.5767 11.5607C12.8477 11.2794 13 10.8978 13 10.5C13 10.1022 12.8477 9.72064 12.5767 9.43934C12.3057 9.15804 11.9382 9 11.5549 9H5.78035C5.39709 9 5.02952 9.15804 4.75852 9.43934C4.48751 9.72064 4.33526 10.1022 4.33526 10.5C4.33526 10.8978 4.48751 11.2794 4.75852 11.5607Z" fill="#333333"/>
<path d="M4.75852 23.5607C5.02952 23.842 5.39709 24 5.78035 24H11.5549C11.9382 24 12.3057 23.842 12.5767 23.5607C12.8477 23.2794 13 22.8978 13 22.5C13 22.1022 12.8477 21.7206 12.5767 21.4393C12.3057 21.158 11.9382 21 11.5549 21H5.78035C5.39709 21 5.02952 21.158 4.75852 21.4393C4.48751 21.7206 4.33526 22.1022 4.33526 22.5C4.33526 22.8978 4.48751 23.2794 4.75852 23.5607Z" fill="#333333"/>
</g>
<defs>
<clipPath id="clip0_417_3123">
<rect width="48" height="48" fill="white"/>
</clipPath>
</defs>
</svg>
