<svg width="48" height="48" viewBox="0 0 48 48" fill="none" xmlns="http://www.w3.org/2000/svg">
<path d="M29.9332 28.8503L24.7342 3.60003C24.699 3.43129 24.6068 3.2798 24.4731 3.17105C24.3394 3.0623 24.1723 3.00293 23.9999 3.00293C23.8276 3.00293 23.6604 3.0623 23.5267 3.17105C23.393 3.2798 23.3008 3.43129 23.2657 3.60003L19.3657 22.5375L13.2299 17.4233C13.1089 17.3224 12.9593 17.2622 12.8021 17.2512C12.645 17.2402 12.4884 17.279 12.3545 17.362C12.2207 17.445 12.1163 17.568 12.0563 17.7136C11.9963 17.8592 11.9837 18.0201 12.0202 18.1733L15.1634 31.3733L1.00792 43.6838C0.881369 43.7936 0.795244 43.9427 0.763283 44.1072C0.731321 44.2716 0.755363 44.4421 0.831575 44.5913C0.907787 44.7406 1.03178 44.86 1.18377 44.9305C1.33576 45.001 1.507 45.0187 1.67017 44.9805L23.9999 39.7695L46.3297 44.9805C46.3855 44.9933 46.4426 44.9998 46.4999 45C46.6528 45.0001 46.802 44.9534 46.9276 44.8663C47.0532 44.7792 47.1491 44.6558 47.2027 44.5126C47.2562 44.3695 47.2647 44.2134 47.227 44.0652C47.1893 43.9171 47.1073 43.784 46.9919 43.6838L29.9332 28.8503ZM28.7579 29.8163L41.0144 40.4738L24.7499 31.8V11.112L28.5157 29.4C28.5485 29.5616 28.6336 29.7079 28.7579 29.8163ZM19.2419 29.8163C19.3661 29.7081 19.4512 29.5621 19.4842 29.4008L23.2499 11.112V31.8L6.98542 40.4738L19.2419 29.8163ZM18.4342 27.0645L15.2174 21.0323L19.0229 24.204L18.4342 27.0645ZM14.8282 23.49L17.8072 29.076L16.4407 30.264L14.8282 23.49ZM23.9999 38.25C23.9426 38.2502 23.8855 38.2567 23.8297 38.2695L6.89992 42.219L23.9999 33.1005L41.0999 42.219L24.1724 38.2688C24.1158 38.2561 24.0579 38.2498 23.9999 38.25Z" fill="black"/>
</svg>
