<svg width="48" height="48" viewBox="0 0 48 48" fill="none" xmlns="http://www.w3.org/2000/svg">
<g clip-path="url(#clip0_417_3014)">
<path d="M35.9412 34.7373C36.0157 34.6974 36.0903 34.6577 36.1643 34.6171C39.6726 32.6913 42.6626 29.8887 44.8112 26.5124L47.7793 21.8482L45.3971 20.3324L42.429 24.9966C38.5477 31.096 31.9141 34.7374 24.6844 34.7374C17.4548 34.7374 10.8214 31.096 6.93986 24.9966L5.86682 23.3102L9.21732 24.0049L9.79059 21.2402L1.70588 19.5637L0.0294588 27.6484L2.79416 28.2217L3.49496 24.842L4.55784 26.5123C6.70645 29.8887 9.69638 32.6913 13.2046 34.617C13.2787 34.6577 13.3533 34.6974 13.4278 34.7372H0V44.1489H48V34.7372H35.9412V34.7373ZM15.9427 37.5608H19.6877L18.7465 41.3255H15.0015L15.9427 37.5608ZM12.091 41.3255H8.46362L9.4048 37.5608H13.0322L12.091 41.3255ZM22.5981 37.5608H26.3432L25.402 41.3255H21.6569L22.5981 37.5608ZM29.2536 37.5608H32.9986L32.0574 41.3255H28.3124L29.2536 37.5608ZM35.909 37.5608H39.6541L38.7129 41.3255H34.9678L35.909 37.5608ZM2.82353 37.5608H6.4944L5.55322 41.3255H2.82353V37.5608ZM45.1765 41.3255H41.6232L42.5644 37.5608H45.1765V41.3255Z" fill="#333333"/>
<path d="M24.6844 31.9138C30.912 31.9138 35.9785 26.8472 35.9785 20.6196C35.9785 18.0221 34.2089 14.5393 30.7188 10.2679C28.22 7.20985 25.759 4.86962 25.6555 4.77145L24.6844 3.85107L23.7133 4.77145C23.6098 4.86952 21.1488 7.20985 18.6501 10.2679C15.16 14.5394 13.3904 18.0222 13.3904 20.6196C13.3904 26.8472 18.4568 31.9138 24.6844 31.9138ZM20.8182 12.0768C22.2782 10.288 23.7536 8.72891 24.6844 7.78293C25.6153 8.72891 27.0906 10.2879 28.5506 12.0768C31.5198 15.7148 33.155 18.7487 33.155 20.6196C33.155 25.2903 29.3551 29.0902 24.6844 29.0902C20.0137 29.0902 16.2138 25.2903 16.2138 20.6196C16.2139 18.7488 17.8491 15.7148 20.8182 12.0768Z" fill="#333333"/>
</g>
<defs>
<clipPath id="clip0_417_3014">
<rect width="48" height="48" fill="white"/>
</clipPath>
</defs>
</svg>
