<svg width="37" height="45" viewBox="0 0 37 45" fill="none" xmlns="http://www.w3.org/2000/svg">
<path fill-rule="evenodd" clip-rule="evenodd" d="M10.0657 0.330562C16.081 -0.88297 22.1562 1.3207 26.6686 5.69425C29.6179 8.55284 30.5625 12.5794 30.8241 15.6827C30.8462 15.9452 30.8636 16.2029 30.8769 16.4549C32.9355 15.0359 36.1606 16.1619 36.3891 19.0244C36.5327 20.8225 36.6843 22.7351 36.8001 24.228C36.9108 25.6557 36.9997 26.8253 37 27.0227L34 27.0237C34 27.0282 33.9986 27.0066 33.9952 26.956C33.9934 26.9297 33.9911 26.8955 33.9882 26.8531C33.9803 26.7367 33.968 26.5581 33.9497 26.3088C33.9155 25.8431 33.8669 25.205 33.8091 24.46C33.6936 22.9705 33.5422 21.0606 33.3987 19.2632C33.3888 19.1402 33.3473 19.066 33.2981 19.0118C33.2409 18.9489 33.1491 18.8893 33.0291 18.8585C32.7867 18.7962 32.581 18.8717 32.4516 19.0574L30.4191 21.9758C30.0183 22.5514 29.272 22.7723 28.6224 22.5077C27.9733 22.2433 27.5939 21.5648 27.7084 20.8735L27.7086 20.8721L27.7106 20.8593C27.7127 20.8464 27.716 20.825 27.7203 20.7953C27.729 20.7359 27.7417 20.6439 27.7567 20.5226C27.7866 20.2798 27.8249 19.9207 27.8561 19.4716C27.9188 18.5708 27.9517 17.3227 27.8347 15.9347C27.5964 13.1069 26.7592 9.95992 24.5807 7.84845C21.4838 4.84689 17.652 3.11826 13.7707 3.00696C16.6534 6.52683 15.4229 11.6858 11.3613 13.7263C6.37339 16.232 3.00008 21.2604 3 27.0236C2.99995 32.1372 5.71217 36.7066 9.83263 39.4161C9.64071 38.745 9.53883 38.0226 9.53883 37.2546C9.53883 33.9293 11.7957 30.9956 13.7031 29.0676C14.6955 28.0645 15.6823 27.2455 16.4187 26.6781C16.7881 26.3934 17.0977 26.1696 17.3177 26.0152C17.4278 25.938 17.5156 25.878 17.5775 25.8362C17.6085 25.8153 17.633 25.799 17.6506 25.7873L17.6718 25.7734L17.6783 25.7691L17.6815 25.767C17.6815 25.767 17.6822 25.7666 18.5 27.024C19.3043 25.7578 19.3051 25.7583 19.3051 25.7583L19.3083 25.7604L19.315 25.7646L19.3363 25.7784C19.3541 25.7899 19.3788 25.806 19.4099 25.8265C19.4721 25.8676 19.5603 25.9265 19.6707 26.0025C19.8913 26.1542 20.2016 26.3743 20.5719 26.6549C21.3098 27.2141 22.2986 28.0236 23.293 29.0212C25.2095 30.9438 27.4613 33.8758 27.4613 37.2546C27.4613 38.0348 27.3561 38.7678 27.1583 39.4479C27.9949 38.9024 28.7733 38.2801 29.4827 37.5917C30.0773 37.0149 31.0269 37.0292 31.6038 37.6237C32.1807 38.2183 32.1664 39.1679 31.5718 39.7448C28.2457 42.9721 23.6634 44.9716 18.6101 45.0003C8.44371 45.058 -0.000100493 36.991 8.96762e-10 27.0236C0.000100375 20.0467 4.08608 14.0238 10.0145 11.0455C12.4879 9.803 13.083 6.75946 11.3484 4.78841C10.7703 4.13083 10.1299 3.52532 9.43627 2.98092C8.97595 2.61964 8.76774 2.02366 8.90295 1.45433C9.03817 0.885005 9.49212 0.446282 10.0657 0.330562ZM18.5 27.024L19.3051 25.7583C18.8093 25.4434 18.1739 25.4468 17.6815 25.767L18.5 27.024ZM18.5084 28.8579C18.4269 28.919 18.3405 28.9846 18.2498 29.0545C17.5872 29.565 16.7087 30.2952 15.8358 31.1776C14.0125 33.0205 12.5388 35.202 12.5388 37.2546C12.5388 38.791 13.1593 39.9194 14.1511 40.699C15.1797 41.5075 16.6949 42.0006 18.5 42.0006C20.3052 42.0006 21.8204 41.5075 22.849 40.699C23.8408 39.9194 24.4613 38.791 24.4613 37.2546C24.4613 35.1423 22.9824 32.959 21.1683 31.1391C20.2974 30.2654 19.4209 29.5468 18.7598 29.0458C18.6718 28.9791 18.5878 28.9164 18.5084 28.8579Z" fill="#333333"/>
<path d="M34.0001 26.4999C34.0001 25.6715 34.6717 24.9999 35.5001 24.9999C36.3285 24.9999 37.0001 25.6715 37.0001 26.4999V27.4999C37.0001 28.3283 36.3285 28.9999 35.5001 28.9999C34.6717 28.9999 34.0001 28.3283 34.0001 27.4999V26.4999Z" fill="#333333"/>
</svg>
