<svg width="48" height="48" viewBox="0 0 48 48" xmlns="http://www.w3.org/2000/svg">
<g clip-path="url(#clip0_417_3181)">
<path fill-rule="evenodd" clip-rule="evenodd" d="M16.0657 3.33056C22.081 2.11703 28.1562 4.3207 32.6686 8.69425C35.6179 11.5528 36.5625 15.5794 36.8241 18.6827C36.8462 18.9452 36.8636 19.2029 36.8769 19.4549C38.9355 18.0359 42.1606 19.1619 42.3891 22.0244C42.5327 23.8225 42.6843 25.7351 42.8001 27.228C42.9108 28.6557 42.9997 29.8253 43 30.0227L40 30.0237C40 30.0282 39.9986 30.0066 39.9952 29.956C39.9934 29.9297 39.9911 29.8955 39.9882 29.8531C39.9803 29.7367 39.968 29.5581 39.9497 29.3088C39.9155 28.8431 39.8669 28.205 39.8091 27.46C39.6936 25.9705 39.5422 24.0606 39.3987 22.2632C39.3888 22.1402 39.3473 22.066 39.2981 22.0118C39.2409 21.9489 39.1491 21.8893 39.0291 21.8585C38.7867 21.7962 38.581 21.8717 38.4516 22.0574L36.4191 24.9758C36.0183 25.5514 35.272 25.7723 34.6224 25.5077C33.9733 25.2433 33.5939 24.5648 33.7084 23.8735L33.7086 23.8721L33.7106 23.8593C33.7127 23.8464 33.716 23.825 33.7203 23.7953C33.729 23.7359 33.7417 23.6439 33.7567 23.5226C33.7866 23.2798 33.8249 22.9207 33.8561 22.4716C33.9188 21.5708 33.9517 20.3227 33.8347 18.9347C33.5964 16.1069 32.7592 12.9599 30.5807 10.8485C27.4838 7.84689 23.652 6.11826 19.7707 6.00696C22.6534 9.52683 21.4229 14.6858 17.3613 16.7263C12.3734 19.232 9.00008 24.2604 9 30.0236C8.99995 35.1372 11.7122 39.7066 15.8326 42.4161C15.6407 41.745 15.5388 41.0226 15.5388 40.2546C15.5388 36.9293 17.7957 33.9956 19.7031 32.0676C20.6955 31.0645 21.6823 30.2455 22.4187 29.6781C22.7881 29.3934 23.0977 29.1696 23.3177 29.0152C23.4278 28.938 23.5156 28.878 23.5775 28.8362C23.6085 28.8153 23.633 28.799 23.6506 28.7873L23.6718 28.7734L23.6783 28.7691L23.6815 28.767C23.6815 28.767 23.6822 28.7666 24.5 30.024C25.3043 28.7578 25.3051 28.7583 25.3051 28.7583L25.3083 28.7604L25.315 28.7646L25.3363 28.7784C25.3541 28.7899 25.3788 28.806 25.4099 28.8265C25.4721 28.8676 25.5603 28.9265 25.6707 29.0025C25.8913 29.1542 26.2016 29.3743 26.5719 29.6549C27.3098 30.2141 28.2986 31.0236 29.293 32.0212C31.2095 33.9438 33.4613 36.8758 33.4613 40.2546C33.4613 41.0348 33.3561 41.7678 33.1583 42.4479C33.9949 41.9024 34.7733 41.2801 35.4827 40.5917C36.0773 40.0149 37.0269 40.0292 37.6038 40.6237C38.1807 41.2183 38.1664 42.1679 37.5718 42.7448C34.2457 45.9721 29.6634 47.9716 24.6101 48.0003C14.4437 48.058 5.9999 39.991 6 30.0236C6.0001 23.0467 10.0861 17.0238 16.0145 14.0455C18.4879 12.803 19.083 9.75946 17.3484 7.78841C16.7703 7.13083 16.1299 6.52532 15.4363 5.98092C14.9759 5.61964 14.7677 5.02366 14.903 4.45433C15.0382 3.885 15.4921 3.44628 16.0657 3.33056ZM24.5 30.024L25.3051 28.7583C24.8093 28.4434 24.1739 28.4468 23.6815 28.767L24.5 30.024ZM24.5084 31.8579C24.4269 31.919 24.3405 31.9846 24.2498 32.0545C23.5872 32.565 22.7087 33.2952 21.8358 34.1776C20.0125 36.0205 18.5388 38.202 18.5388 40.2546C18.5388 41.791 19.1593 42.9194 20.1511 43.699C21.1797 44.5075 22.6949 45.0006 24.5 45.0006C26.3052 45.0006 27.8204 44.5075 28.849 43.699C29.8408 42.9194 30.4613 41.791 30.4613 40.2546C30.4613 38.1423 28.9824 35.959 27.1683 34.1391C26.2974 33.2654 25.4209 32.5468 24.7598 32.0458C24.6718 31.9791 24.5878 31.9164 24.5084 31.8579Z"/>
<path d="M40.0001 29.4999C40.0001 28.6715 40.6717 27.9999 41.5001 27.9999C42.3285 27.9999 43.0001 28.6715 43.0001 29.4999V30.4999C43.0001 31.3283 42.3285 31.9999 41.5001 31.9999C40.6717 31.9999 40.0001 31.3283 40.0001 30.4999V29.4999Z"/>
</g>
 
</svg>
