<svg width="48" height="48" xmlns="http://www.w3.org/2000/svg"><g clip-path="url(#prefix__clip0_417_3014)"><path d="M35.941 34.737l.223-.12a23.921 23.921 0 008.647-8.105l2.968-4.664-2.382-1.516-2.968 4.665a20.934 20.934 0 01-17.745 9.74 20.935 20.935 0 01-17.744-9.74L5.867 23.31l3.35.695.574-2.765-8.085-1.676-1.677 8.084 2.765.574.701-3.38 1.063 1.67a23.92 23.92 0 008.647 8.105l.223.12H0v9.412h48v-9.412H35.941zm-19.998 2.824h3.745l-.941 3.764h-3.745l.94-3.764zm-3.852 3.764H8.464l.94-3.764h3.628l-.941 3.764zm10.507-3.764h3.745l-.941 3.764h-3.745l.941-3.764zm6.656 0h3.745l-.942 3.764h-3.745l.942-3.764zm6.655 0h3.745l-.941 3.764h-3.745l.941-3.764zm-33.085 0h3.67l-.94 3.764h-2.73v-3.764zm42.352 3.764h-3.553l.941-3.764h2.612v3.764z"/><path d="M24.684 31.914c6.228 0 11.294-5.067 11.294-11.294 0-2.598-1.77-6.08-5.26-10.352a65.344 65.344 0 00-5.063-5.497l-.97-.92-.972.92a65.315 65.315 0 00-5.063 5.497c-3.49 4.271-5.26 7.754-5.26 10.352 0 6.227 5.067 11.294 11.294 11.294zm-3.866-19.837a64.176 64.176 0 013.866-4.294c.931.946 2.407 2.505 3.867 4.294 2.969 3.638 4.604 6.672 4.604 8.543 0 4.67-3.8 8.47-8.47 8.47-4.671 0-8.471-3.8-8.471-8.47 0-1.871 1.635-4.905 4.604-8.543z"/></g></svg>