<svg width="48" height="48" xmlns="http://www.w3.org/2000/svg"><path d="M21.188 2.813a4.226 4.226 0 014.011 2.914c-6.22.795-11.043 6.122-11.043 12.554 0 1.489.26 3.424.71 5.35a7.034 7.034 0 00-3.522 6.088c0 3.432 2.472 6.298 5.73 6.91C17.83 41.422 23.17 48 26.811 48c3.694 0 8.994-6.649 9.74-11.37 3.257-.613 5.73-3.479 5.73-6.911 0-2.6-1.42-4.872-3.522-6.089.449-1.925.709-3.86.709-5.349 0-6.548-4.999-11.95-11.38-12.592C27.46 2.452 24.606 0 21.188 0c-3.995 0-6.55 1.238-7.693 1.55A24.549 24.549 0 015.72 2.813v2.813c2.95 0 5.866-.473 8.665-1.406 1.195-.33 3.353-1.407 6.803-1.407zM36.656 18.28c0 1.204-.215 2.83-.578 4.457a7.013 7.013 0 00-7.318 4.278l2.596 1.083A4.209 4.209 0 0135.25 25.5a4.224 4.224 0 014.219 4.219 4.224 4.224 0 01-4.219 4.218h-1.406v1.407c0 4.044-5.176 9.843-7.032 9.843-1.846 0-7.03-5.782-7.03-9.843v-1.407h-1.407a4.224 4.224 0 01-4.219-4.218 4.224 4.224 0 014.219-4.219 4.209 4.209 0 013.894 2.598l2.596-1.082a7.013 7.013 0 00-7.318-4.278c-.363-1.627-.578-3.253-.578-4.457 0-5.428 4.416-9.843 9.843-9.843 5.428 0 9.844 4.415 9.844 9.843z"/></svg>