<svg width="48" height="48" xmlns="http://www.w3.org/2000/svg"><path d="M44.752 6.03A1.4 1.4 0 0043.4 5c-.268 0-6.615.056-8.284 4.855-1.03 2.961-.004 5.245 1.204 6.45-.259.468-.477.98-.64 1.516a18.197 18.197 0 00-3.29-3.34c.675-2.404.262-6.77-3.801-8.568C27.217 5.308 25.629 5 23.866 5c-6.051 0-12.405 3.584-12.674 3.737a1.4 1.4 0 00-.364 2.133c.084.095.745.851 1.778 1.897C6.71 15.906 3 21.985 3 28.8 3 38.835 11.165 47 21.202 47c10.036 0 18.201-8.165 18.201-18.2 0-2.512-.546-4.945-1.512-7.189.07-1.386.417-3.335.958-4.116.166.018.329.064.497.064 2.327 0 4.465-1.878 5.08-4.466 1.04-4.354.355-6.953.326-7.063zM23.866 7.8c1.37 0 2.579.227 3.59.673 2.138.947 2.459 2.954 2.376 4.291a18.082 18.082 0 00-5.602-1.908 1.4 1.4 0 00-.455 2.764c1.79.294 3.514.927 5.073 1.821-1.284 2.1-2.8 2.691-4.957 2.053-3.494-1.034-7.682-5.02-9.717-7.132 2.127-.997 6.049-2.562 9.692-2.562zM5.8 28.8c0-1.45.207-2.857.584-4.2h9.217c.771 0 1.4.629 1.4 1.4 0 .771-.629 1.4-1.4 1.4h-4.2a1.4 1.4 0 00-1.4 1.4c0 .771-.63 1.4-1.4 1.4H5.87c-.043-.462-.07-.928-.07-1.4zm.597 4.2H8.6a4.207 4.207 0 003.961-2.8h3.04c2.316 0 4.2-1.884 4.2-4.2 0-2.316-1.884-4.2-4.2-4.2H7.472a15.278 15.278 0 017.28-6.978c2.368 2.137 5.465 4.506 8.344 5.357.81.24 1.595.361 2.335.361 2.94 0 4.707-1.856 5.73-3.472A15.408 15.408 0 0136.317 26h-2.514a4.205 4.205 0 00-4.2 4.2v1.4h-2.801a5.606 5.606 0 00-5.6 5.6c0 3.088 2.511 5.6 5.6 5.6h.779a15.29 15.29 0 01-6.38 1.4c-7.034 0-12.969-4.746-14.804-11.2zm25.342 7h-4.937a2.803 2.803 0 01-2.8-2.8c0-1.544 1.256-2.8 2.8-2.8h4.2a1.4 1.4 0 001.4-1.4v-2.8c0-.771.63-1.4 1.4-1.4h2.8c0 4.414-1.875 8.39-4.863 11.2zm9.964-27.555c-.393 1.652-1.922 2.782-3.17 2.093-.345-.192-1.572-1.464-.772-3.763.682-1.963 2.982-2.632 4.424-2.859.05.966 0 2.508-.482 4.53z"/></svg>