<svg width="48" height="48" viewBox="0 0 48 48" fill="none" xmlns="http://www.w3.org/2000/svg">
<path d="M5.9756 33.0049C6.69232 32.8084 7.42883 33.2435 7.62087 33.9768C7.79967 34.6599 7.44272 35.3604 6.81354 35.6118L15.8752 40.9644C15.7738 40.2813 16.1882 39.6144 16.8558 39.4314C17.5725 39.2349 18.309 39.6709 18.501 40.4042L19.2996 43.4524C19.4916 44.1856 19.0663 44.9392 18.3497 45.1357L15.3705 45.9528C14.6539 46.1493 13.9165 45.7142 13.7244 44.9809C13.5455 44.2978 13.9026 43.5965 14.5317 43.345L5.46916 37.9924C5.57098 38.6757 5.15731 39.3423 4.48952 39.5254C3.77289 39.7217 3.03628 39.2867 2.84424 38.5535L2.04566 35.5053C1.95343 35.1532 2.0022 34.7776 2.18036 34.4618C2.35848 34.1462 2.65154 33.9154 2.99556 33.8211L5.9756 33.0049ZM34.9267 33.9768C35.1187 33.2435 35.8552 32.8084 36.5719 33.0049L39.5511 33.8211C39.8953 33.9154 40.189 34.1461 40.3672 34.4618C40.5453 34.7776 40.5932 35.1532 40.501 35.5053L39.7033 38.5535C39.5112 39.2868 38.7739 39.7219 38.0571 39.5254C37.3896 39.3422 36.9749 38.6755 37.0766 37.9924L28.0141 43.345C28.644 43.5961 29.0013 44.2973 28.8223 44.9809C28.6301 45.7141 27.8936 46.1493 27.177 45.9528L24.1978 45.1357C23.8536 45.0414 23.5599 44.8107 23.3817 44.495C23.2038 44.1793 23.1557 43.8044 23.2479 43.4524L24.0465 40.4042C24.2386 39.6709 24.9751 39.2349 25.6918 39.4314C26.3593 39.6145 26.7729 40.2813 26.6714 40.9644L35.7331 35.6109C35.1045 35.3591 34.7479 34.6596 34.9267 33.9768ZM20.7621 2.10359C21.1442 1.94247 21.5818 1.96929 21.9455 2.18413L36.6034 10.8426C37.019 11.0881 37.2751 11.5419 37.2752 12.0329V29.3508C37.2752 29.8419 37.0191 30.2956 36.6034 30.5411L21.9455 39.2005C21.5299 39.446 21.0177 39.446 20.602 39.2005L5.94411 30.5411C5.52843 30.2956 5.27236 29.8419 5.27236 29.3508V12.0329C5.27247 11.5419 5.52852 11.0881 5.94411 10.8426L20.602 2.18413L20.7621 2.10359ZM9.30289 12.0329L11.5053 13.335C12.1479 13.7146 12.3687 14.5552 11.9978 15.2126C11.6268 15.8701 10.8044 16.0952 10.1618 15.7156L7.95938 14.4143V28.557L19.9303 35.6288V21.4852L16.7079 19.5826C16.0653 19.203 15.8454 18.3616 16.2164 17.7041C16.5875 17.047 17.409 16.8217 18.0514 17.2012L21.2738 19.1047L33.2446 12.0329L21.2738 4.96112L9.30289 12.0329ZM22.6173 21.4852V35.6288L34.5882 28.557V14.4143L22.6173 21.4852ZM42.4751 10.6583C42.8313 10.6583 43.1731 10.8034 43.4251 11.061L45.6065 13.293C46.1312 13.8298 46.1312 14.7 45.6065 15.2368C45.1176 15.737 44.3462 15.7708 43.8187 15.3388V26.0449C44.3462 25.6132 45.1177 25.6477 45.6065 26.1479C46.131 26.6847 46.1311 27.5549 45.6065 28.0917L43.4251 30.3227C42.9004 30.8595 42.0499 30.8596 41.5252 30.3227L39.3447 28.0917C38.82 27.5548 38.82 26.6847 39.3447 26.1479C39.8333 25.6479 40.6042 25.6136 41.1316 26.0449V15.3388C40.6042 15.7704 39.8335 15.7368 39.3447 15.2368C38.82 14.7 38.82 13.8298 39.3447 13.293L41.5252 11.061C41.7771 10.8033 42.1189 10.6584 42.4751 10.6583Z" fill="#333333"/>
</svg>
