<svg width="48" height="48" viewBox="0 0 48 48" fill="none" xmlns="http://www.w3.org/2000/svg">
<path fill-rule="evenodd" clip-rule="evenodd" d="M44.9997 11.4C44.9997 6.7611 41.2387 3 36.5998 3H11.3999C6.76108 3 3 6.7611 3 11.4V31C3 35.6389 6.76108 39.4 11.3999 39.4H19.7999C20.1712 39.4 20.5273 39.2525 20.7898 38.9899C21.0524 38.7274 21.1999 38.3713 21.1999 38C21.1999 37.6287 21.0524 37.2726 20.7898 37.01C20.5273 36.7475 20.1712 36.6 19.7999 36.6H11.3999C9.91474 36.6 8.49037 36.01 7.44017 34.9598C6.38998 33.9096 5.79998 32.4852 5.79998 31V11.4C5.79998 9.91479 6.38998 8.49041 7.44017 7.4402C8.49037 6.39 9.91474 5.8 11.3999 5.8H15.5999V12.8C15.5999 13.9139 16.0424 14.9822 16.8301 15.7698C17.6177 16.5575 18.686 17 19.7999 17H28.1998C29.3137 17 30.382 16.5575 31.1697 15.7698C31.9573 14.9822 32.3998 13.9139 32.3998 12.8V5.8H36.5998C38.085 5.8 39.5094 6.39 40.5596 7.4402C41.6097 8.49041 42.1997 9.91479 42.1997 11.4V25.4C42.1997 25.7713 42.3472 26.1274 42.6098 26.3899C42.8723 26.6525 43.2284 26.8 43.5997 26.8C43.971 26.8 44.3271 26.6525 44.5897 26.3899C44.8522 26.1274 44.9997 25.7713 44.9997 25.4V11.4ZM29.5998 5.8H18.3999V12.8C18.3999 13.1713 18.5474 13.5274 18.8099 13.7899C19.0725 14.0525 19.4286 14.2 19.7999 14.2H28.1998C28.5711 14.2 28.9272 14.0525 29.1898 13.7899C29.4523 13.5274 29.5998 13.1713 29.5998 12.8V5.8Z" fill="#333333"/>
<path fill-rule="evenodd" clip-rule="evenodd" d="M31.3974 23.2209C31.5254 23.0298 31.6985 22.8732 31.9014 22.7649C32.1043 22.6566 32.3308 22.6 32.5608 22.6H33.4988C36.0979 22.6 38.0075 25.057 37.3327 27.577L37.2963 27.7128H39.1359C42.7121 27.7128 45.4638 30.8796 44.9346 34.4153L44.1611 40.7713C43.8657 43.1891 41.8064 45 39.3718 45H30.8486C30.2401 45.0009 29.6447 44.823 29.1364 44.4883C28.6282 44.823 28.0328 45.0009 27.4242 45H25.7121C25.3038 45.0005 24.8995 44.9207 24.5222 44.765C24.1449 44.6092 23.8019 44.3807 23.5129 44.0924C23.2239 43.8041 22.9945 43.4617 22.8379 43.0848C22.6812 42.7078 22.6003 42.3037 22.5999 41.8955V30.818C22.5999 29.0974 23.9999 27.7135 25.7121 27.7135H27.4242C27.7294 27.7135 28.0255 27.7576 28.3048 27.8395L31.3974 23.2209ZM30.5364 41.8955C30.5369 41.936 30.5453 41.976 30.5613 42.0133C30.5772 42.0505 30.6003 42.0842 30.6293 42.1125C30.6583 42.1408 30.6926 42.1631 30.7303 42.1781C30.7679 42.1931 30.8081 42.2006 30.8486 42.2H39.3718C39.8648 42.2016 40.3414 42.0227 40.7116 41.6971C41.0818 41.3715 41.3201 40.9217 41.3815 40.4325L42.1584 34.0569L42.1605 34.0359L42.164 34.0135C42.4454 32.1795 41.0189 30.5135 39.1359 30.5135H35.4714C35.2567 30.5134 35.0448 30.4639 34.8523 30.3689C34.6598 30.2739 34.4917 30.1358 34.361 29.9655C34.2303 29.7951 34.1406 29.5969 34.0988 29.3863C34.0569 29.1757 34.0641 28.9583 34.1197 28.7509L34.6279 26.8532C34.673 26.6811 34.6779 26.5009 34.6422 26.3265C34.6065 26.1522 34.5312 25.9885 34.422 25.8479C34.3128 25.7074 34.1727 25.5939 34.0127 25.5163C33.8526 25.4386 33.6767 25.3988 33.4988 25.4H33.3084L30.5875 29.4628C30.5544 29.512 30.5366 29.57 30.5364 29.6294V41.8955ZM27.7364 30.8166C27.7359 30.7761 27.7274 30.7362 27.7114 30.699C27.6954 30.6619 27.6723 30.6282 27.6433 30.6C27.6143 30.5718 27.58 30.5496 27.5424 30.5346C27.5049 30.5197 27.4647 30.5122 27.4242 30.5128H25.7121C25.6715 30.5122 25.6313 30.5197 25.5937 30.5347C25.5561 30.5497 25.5218 30.572 25.4928 30.6003C25.4638 30.6286 25.4406 30.6623 25.4247 30.6995C25.4088 30.7368 25.4003 30.7768 25.3999 30.8173V41.8955C25.4003 41.936 25.4088 41.976 25.4247 42.0133C25.4406 42.0505 25.4638 42.0842 25.4928 42.1125C25.5218 42.1408 25.5561 42.1631 25.5937 42.1781C25.6313 42.1931 25.6715 42.2006 25.7121 42.2H27.4242C27.4647 42.2006 27.505 42.1931 27.5426 42.1781C27.5802 42.1631 27.6145 42.1408 27.6435 42.1125C27.6725 42.0842 27.6956 42.0505 27.7116 42.0133C27.7275 41.976 27.736 41.936 27.7364 41.8955V30.8166Z" fill="#333333"/>
</svg>
