<svg width="32" height="32" viewBox="0 0 32 32" fill="none" xmlns="http://www.w3.org/2000/svg">
<path d="M8 8C8 7.44772 8.44772 7 9 7H13C13.5523 7 14 7.44772 14 8V12C14 12.5523 13.5523 13 13 13H9C8.44772 13 8 12.5523 8 12V8ZM8 18C8 17.4477 8.44772 17 9 17H13C13.5523 17 14 17.4477 14 18V22C14 22.5523 13.5523 23 13 23H9C8.44772 23 8 22.5523 8 22V18ZM18 8C18 7.44772 18.4477 7 19 7H23C23.5523 7 24 7.44772 24 8V12C24 12.5523 23.5523 13 23 13H19C18.4477 13 18 12.5523 18 12V8ZM18 18C18 17.4477 18.4477 17 19 17H23C23.5523 17 24 17.4477 24 18V22C24 22.5523 23.5523 23 23 23H19C18.4477 23 18 22.5523 18 22V18Z" stroke="white" stroke-width="2"/>
</svg>
