<svg width="48" height="48" viewBox="0 0 48 48" fill="none" xmlns="http://www.w3.org/2000/svg">
<path d="M8.51852 30.7404C8.51852 25.6296 12.693 21.4865 17.8426 21.4865H19.2793C19.5023 20.7431 19.8979 20.0739 20.421 19.5249L17.5036 14.5087C17.317 14.188 17.266 13.807 17.3625 13.4493C17.4591 13.0915 17.6953 12.7861 18.0185 12.6008L21.3703 10.6802L19.2582 7.05083L17.4312 8.09844C16.7581 8.48412 15.8975 8.2553 15.5088 7.58737C15.1202 6.91927 15.3506 6.06518 16.0238 5.67947L19.0658 3.93526C19.0672 3.93444 19.069 3.93425 19.0704 3.93344C19.0716 3.93275 19.0729 3.93139 19.0741 3.93071L22.118 2.18741C22.7911 1.8017 23.6517 2.03043 24.0403 2.69849C24.4289 3.36652 24.1984 4.22062 23.5254 4.60639L21.6965 5.65309L23.8085 9.28247L27.1603 7.36275L27.2885 7.29727C27.9391 7.00731 28.7183 7.24761 29.0826 7.87382L39.6382 26.0189C39.8248 26.3397 39.875 26.7214 39.7784 27.0792C39.6817 27.437 39.4464 27.7425 39.1232 27.9277L29.9815 33.1658C29.3084 33.5513 28.4477 33.3218 28.0591 32.6538L25.1408 27.6376C24.7745 27.7238 24.3929 27.7722 24 27.7722C21.7688 27.7722 19.8851 26.2993 19.2793 24.2801H17.8426C14.2476 24.2801 11.3333 27.1725 11.3333 30.7404C11.3335 33.6117 13.2227 36.0452 15.8341 36.8852L16.0192 36.5269C16.8032 34.8645 18.5045 33.7087 20.4815 33.7087C22.4584 33.7087 24.1588 34.8649 24.9429 36.5269L25.2901 37.2007H38.0741C38.8514 37.2007 39.4815 37.8261 39.4815 38.5976C39.4813 39.3689 38.8513 39.9944 38.0741 39.9944H26.7278L28.3807 43.2064H41.5926C42.3699 43.2064 43 43.8317 43 44.6032C43 45.3746 42.3699 46 41.5926 46H6.40741C5.63012 46 5 45.3746 5 44.6032C5 43.8317 5.63012 43.2064 6.40741 43.2064H12.5822L14.5431 39.3951C11.0223 38.0723 8.51864 34.6985 8.51852 30.7404ZM20.4815 36.5023C19.6268 36.5023 18.8877 37.0065 18.5555 37.7373C18.5462 37.7575 18.5363 37.7775 18.5261 37.7973L15.7434 43.2064H25.2196L22.4368 37.7973C22.4266 37.7775 22.4167 37.7575 22.4075 37.7373C22.0752 37.0065 21.3361 36.5023 20.4815 36.5023ZM26.1111 22.8833C26.1111 21.7261 25.1659 20.7881 24 20.7881C22.8341 20.7881 21.8889 21.7261 21.8889 22.8833C21.889 24.0403 22.8342 24.9785 24 24.9785C25.1658 24.9785 26.111 24.0403 26.1111 22.8833ZM28.9259 22.8833C28.9258 24.1838 28.4125 25.3641 27.5781 26.2399L29.7927 30.0475L36.4962 26.2062L27.3481 10.4801L20.6437 14.3214L22.8583 18.1272C23.2248 18.0409 23.6069 17.9944 24 17.9944C26.7205 17.9944 28.9259 20.1833 28.9259 22.8833Z" fill="#333333"/>
</svg>
