<svg width="24" height="24" viewBox="0 0 24 24" fill="none" xmlns="http://www.w3.org/2000/svg">
<rect width="24" height="24" rx="12" fill="#4CAF50"/>
<path d="M18.5087 16.2909C18.2337 17.0788 17.1422 17.7321 16.2716 17.923C15.676 18.0516 14.898 18.1542 12.279 17.0527C8.92909 15.6448 6.77179 12.1914 6.60366 11.9674C6.44264 11.7433 5.25 10.1388 5.25 8.47931C5.25 6.81984 6.08072 6.01179 6.41557 5.66487C6.69057 5.3801 7.14512 5.25 7.58114 5.25C7.7222 5.25 7.84902 5.25723 7.96301 5.26301C8.29786 5.27747 8.466 5.2977 8.68686 5.83399C8.96187 6.50616 9.63157 8.16563 9.71136 8.3362C9.79258 8.50678 9.8738 8.73806 9.75981 8.96212C9.65294 9.1934 9.5589 9.29603 9.39076 9.49263C9.22262 9.68922 9.06303 9.83955 8.8949 10.0506C8.74101 10.2342 8.56717 10.4308 8.76096 10.7705C8.95474 11.1029 9.62444 12.2117 10.6105 13.1021C11.8829 14.2513 12.9145 14.6185 13.2836 14.7746C13.5586 14.8902 13.8863 14.8628 14.0872 14.6459C14.3423 14.367 14.6572 13.9044 14.9778 13.449C15.2058 13.1224 15.4936 13.0819 15.7957 13.1975C16.1035 13.3059 17.7321 14.1227 18.067 14.2918C18.4018 14.4624 18.6227 14.5433 18.7039 14.6864C18.7837 14.8295 18.7837 15.5017 18.5087 16.2909Z" fill="#FAFAFA"/>
</svg>
