<svg width="80" height="80" viewBox="0 0 80 80" fill="none" xmlns="http://www.w3.org/2000/svg">
<path d="M4 48H0V27L41 0L80 27V80H60V75H76V29L41 5L4 29V48Z" fill="url(#paint0_linear_701_119)"/>
<g clip-path="url(#clip0_701_119)">
<path fill-rule="evenodd" clip-rule="evenodd" d="M29.0346 54.8135C29.0118 54.7104 29.0002 54.6054 29 54.5C28.9991 52.802 29.4297 51.1291 30.2549 49.625C31.08 48.1209 32.2751 46.8305 33.7374 45.8645V28.994C33.7374 27.4043 34.3987 25.8797 35.5758 24.7556C36.7529 23.6315 38.3494 23 40.0141 23H40.0157C41.6803 23.0004 43.2765 23.632 44.4536 24.756C45.6306 25.88 46.292 27.4044 46.2924 28.994V45.884C47.7465 46.8512 48.9341 48.1399 49.7538 49.6402C50.5735 51.1404 51.001 52.8078 51 54.5C51 60.296 46.0773 65 40.0157 65C34.0625 65 29.2073 60.464 29.0346 54.8135ZM36.8585 46.4495C36.9095 46.7504 36.8634 47.059 36.7261 47.3342C36.5889 47.6094 36.3672 47.8382 36.0904 47.99C34.9315 48.6247 33.9611 49.531 33.271 50.6233C32.5809 51.7157 32.1938 52.958 32.1462 54.233C32.1619 54.32 32.1714 54.4085 32.1714 54.5C32.1714 56.4876 32.9975 58.3939 34.4683 59.8001C35.9392 61.2064 37.9344 61.9976 40.0157 62C42.0968 61.9972 44.0916 61.2058 45.5621 59.7996C47.0325 58.3934 47.8585 56.4873 47.8585 54.5C47.8588 53.1789 47.4938 51.8812 46.8004 50.7381C46.107 49.595 45.1098 48.647 43.9096 47.99C43.6245 47.8334 43.398 47.5953 43.2622 47.3092C43.1263 47.0231 43.088 46.7035 43.1525 46.3955L43.1509 46.3535V28.994C43.1509 28.1999 42.8206 27.4384 42.2326 26.8769C41.6447 26.3154 40.8472 26 40.0157 26H40.0141C39.1826 26 38.3852 26.3154 37.7972 26.8769C37.2092 27.4384 36.8789 28.1999 36.8789 28.994V46.2095C36.8789 46.2905 36.8711 46.3715 36.8585 46.4495ZM41.5865 50.2565C42.6296 50.6145 43.5075 51.3119 44.0659 52.2264C44.6243 53.1408 44.8276 54.2139 44.6402 55.2572C44.4528 56.3005 43.8866 57.2475 43.0409 57.9319C42.1953 58.6163 41.1242 58.9945 40.0157 59C38.9037 59.0006 37.8272 58.6256 36.9768 57.9413C36.1264 57.257 35.5568 56.3076 35.3687 55.2609C35.1807 54.2142 35.3864 53.1378 35.9493 52.2219C36.5123 51.3061 37.3963 50.6099 38.445 50.2565V30.5C38.445 30.1022 38.6104 29.7206 38.905 29.4393C39.1996 29.158 39.5991 29 40.0157 29C40.4323 29 40.8318 29.158 41.1264 29.4393C41.421 29.7206 41.5865 30.1022 41.5865 30.5V50.2565Z" fill="#333333"/>
<path d="M51.4233 37.5607C51.6944 37.842 52.0621 38 52.4454 38H62.5546C62.9379 38 63.3056 37.842 63.5767 37.5607C63.8477 37.2794 64 36.8978 64 36.5C64 36.1022 63.8477 35.7206 63.5767 35.4393C63.3056 35.158 62.9379 35 62.5546 35H52.4454C52.0621 35 51.6944 35.158 51.4233 35.4393C51.1523 35.7206 51 36.1022 51 36.5C51 36.8978 51.1523 37.2794 51.4233 37.5607Z" fill="#333333"/>
<path d="M51.4233 43.5607C51.6944 43.842 52.0621 44 52.4454 44H58.2213C58.6046 44 58.9722 43.842 59.2433 43.5607C59.5144 43.2794 59.6667 42.8978 59.6667 42.5C59.6667 42.1022 59.5144 41.7206 59.2433 41.4393C58.9722 41.158 58.6046 41 58.2213 41H52.4454C52.0621 41 51.6944 41.158 51.4233 41.4393C51.1523 41.7206 51 42.1022 51 42.5C51 42.8978 51.1523 43.2794 51.4233 43.5607Z" fill="#333333"/>
<path d="M51.4233 31.5607C51.6944 31.842 52.0621 32 52.4454 32H58.2213C58.6046 32 58.9722 31.842 59.2433 31.5607C59.5144 31.2794 59.6667 30.8978 59.6667 30.5C59.6667 30.1022 59.5144 29.7206 59.2433 29.4393C58.9722 29.158 58.6046 29 58.2213 29H52.4454C52.0621 29 51.6944 29.158 51.4233 29.4393C51.1523 29.7206 51 30.1022 51 30.5C51 30.8978 51.1523 31.2794 51.4233 31.5607Z" fill="#333333"/>
<path d="M16.4233 37.5607C16.6943 37.842 17.0618 38 17.4451 38H27.552C27.9353 38 28.3028 37.842 28.5739 37.5607C28.8449 37.2794 28.9971 36.8978 28.9971 36.5C28.9971 36.1022 28.8449 35.7206 28.5739 35.4393C28.3028 35.158 27.9353 35 27.552 35H17.4451C17.0618 35 16.6943 35.158 16.4233 35.4393C16.1522 35.7206 16 36.1022 16 36.5C16 36.8978 16.1522 37.2794 16.4233 37.5607Z" fill="#333333"/>
<path d="M20.7585 31.5607C21.0295 31.842 21.3971 32 21.7803 32H27.5549C27.9382 32 28.3057 31.842 28.5767 31.5607C28.8477 31.2794 29 30.8978 29 30.5C29 30.1022 28.8477 29.7206 28.5767 29.4393C28.3057 29.158 27.9382 29 27.5549 29H21.7803C21.3971 29 21.0295 29.158 20.7585 29.4393C20.4875 29.7206 20.3353 30.1022 20.3353 30.5C20.3353 30.8978 20.4875 31.2794 20.7585 31.5607Z" fill="#333333"/>
<path d="M20.7585 43.5607C21.0295 43.842 21.3971 44 21.7803 44H27.5549C27.9382 44 28.3057 43.842 28.5767 43.5607C28.8477 43.2794 29 42.8978 29 42.5C29 42.1022 28.8477 41.7206 28.5767 41.4393C28.3057 41.158 27.9382 41 27.5549 41H21.7803C21.3971 41 21.0295 41.158 20.7585 41.4393C20.4875 41.7206 20.3353 42.1022 20.3353 42.5C20.3353 42.8978 20.4875 43.2794 20.7585 43.5607Z" fill="#333333"/>
</g>
<defs>
<linearGradient id="paint0_linear_701_119" x1="80" y1="40" x2="-6.73638e-07" y2="40" gradientUnits="userSpaceOnUse">
<stop stop-color="#A5E427"/>
<stop offset="1" stop-color="#1EBC61"/>
</linearGradient>
<clipPath id="clip0_701_119">
<rect width="48" height="48" fill="white" transform="translate(16 20)"/>
</clipPath>
</defs>
</svg>
