<svg width="80" height="158" viewBox="0 0 80 158" fill="none" xmlns="http://www.w3.org/2000/svg">
<g clip-path="url(#clip0_809_1846)">
<rect width="80" height="158" fill="white"/>
<path fill-rule="evenodd" clip-rule="evenodd" d="M0 48H4V29L76 75H60V79H80V27L41 0L0 27V48ZM41 5L76 29V70L7.08333 27L41 5Z" fill="url(#paint0_linear_809_1846)"/>
<path fill-rule="evenodd" clip-rule="evenodd" d="M0 127H4V108L76 154H60V158H80V106L41 79L0 106V127ZM41 84L76 108V149L7.08333 106L41 84Z" fill="url(#paint1_linear_809_1846)"/>
</g>
<defs>
<linearGradient id="paint0_linear_809_1846" x1="80" y1="39.5" x2="-6.73638e-07" y2="39.5" gradientUnits="userSpaceOnUse">
<stop stop-color="#A5E427"/>
<stop offset="1" stop-color="#1EBC61"/>
</linearGradient>
<linearGradient id="paint1_linear_809_1846" x1="80" y1="118.5" x2="-6.73638e-07" y2="118.5" gradientUnits="userSpaceOnUse">
<stop stop-color="#5B5B5B" stop-opacity="0.99"/>
<stop offset="1" stop-color="#333333"/>
</linearGradient>
<clipPath id="clip0_809_1846">
<rect width="80" height="158" fill="white"/>
</clipPath>
</defs>
</svg>
