<svg width="288" height="112" viewBox="0 0 288 112" fill="none" xmlns="http://www.w3.org/2000/svg">
<g clip-path="url(#clip0_807_1691)">
<mask id="mask0_807_1691" style="mask-type:luminance" maskUnits="userSpaceOnUse" x="0" y="0" width="288" height="112">
<path d="M288 0H0V112H288V0Z" fill="white"/>
</mask>
<g mask="url(#mask0_807_1691)">
<mask id="mask1_807_1691" style="mask-type:luminance" maskUnits="userSpaceOnUse" x="0" y="0" width="288" height="112">
<path d="M288 0H0V112H288V0Z" fill="white"/>
</mask>
<g mask="url(#mask1_807_1691)">
<path d="M3.51582 68.434C3.03982 68.434 2.56949 68.3604 2.10482 68.213C1.64016 68.0657 1.26049 67.8617 0.96582 67.601L1.93482 65.714C2.13882 65.8954 2.37116 66.037 2.63182 66.139C2.90382 66.241 3.17016 66.292 3.43082 66.292C3.80482 66.292 4.09949 66.2014 4.31482 66.02C4.54149 65.85 4.74549 65.561 4.92682 65.153L5.40282 64.031L5.60682 63.742L8.88782 55.854H11.4378L7.30682 65.561C7.01216 66.2977 6.67216 66.8757 6.28682 67.295C5.91282 67.7144 5.49349 68.009 5.02882 68.179C4.57549 68.349 4.07116 68.434 3.51582 68.434ZM5.07982 65.357L0.999817 55.854H3.73682L6.89882 63.504L5.07982 65.357Z" fill="white"/>
<path d="M14.7224 65V57.418L15.3174 58.03H11.6284V55.854H20.4514V58.03H16.7624L17.3574 57.418V65H14.7224Z" fill="white"/>
<path d="M25.9539 65.1358C24.9112 65.1358 23.9932 64.9318 23.1999 64.5238C22.4179 64.1158 21.8116 63.5605 21.3809 62.8578C20.9502 62.1438 20.7349 61.3335 20.7349 60.4268C20.7349 59.5088 20.9446 58.6985 21.3639 57.9958C21.7946 57.2818 22.3782 56.7265 23.1149 56.3298C23.8516 55.9218 24.6846 55.7178 25.6139 55.7178C26.5092 55.7178 27.3139 55.9105 28.0279 56.2958C28.7532 56.6698 29.3256 57.2138 29.7449 57.9278C30.1642 58.6305 30.3739 59.4748 30.3739 60.4608C30.3739 60.5628 30.3682 60.6818 30.3569 60.8178C30.3456 60.9425 30.3342 61.0615 30.3229 61.1748H22.8939V59.6278H28.9289L27.9089 60.0868C27.9089 59.6108 27.8126 59.1972 27.6199 58.8458C27.4272 58.4945 27.1609 58.2225 26.8209 58.0298C26.4809 57.8258 26.0842 57.7238 25.6309 57.7238C25.1776 57.7238 24.7752 57.8258 24.4239 58.0298C24.0839 58.2225 23.8176 58.5002 23.6249 58.8628C23.4322 59.2142 23.3359 59.6335 23.3359 60.1208V60.5288C23.3359 61.0275 23.4436 61.4695 23.6589 61.8548C23.8856 62.2288 24.1972 62.5178 24.5939 62.7218C25.0019 62.9145 25.4779 63.0108 26.0219 63.0108C26.5092 63.0108 26.9342 62.9372 27.2969 62.7898C27.6709 62.6425 28.0109 62.4215 28.3169 62.1268L29.7279 63.6568C29.3086 64.1328 28.7816 64.5012 28.1469 64.7618C27.5122 65.0112 26.7812 65.1358 25.9539 65.1358Z" fill="white"/>
<path d="M32.4067 65V55.854H41.5017V65H38.8497V57.435L39.4447 58.03H34.4467L35.0417 57.435V65H32.4067Z" fill="white"/>
<path d="M42.8887 64.983L43.0247 62.807C43.0927 62.8184 43.1607 62.8297 43.2287 62.841C43.2967 62.841 43.3591 62.841 43.4157 62.841C43.7331 62.841 43.9824 62.7504 44.1637 62.569C44.3451 62.3877 44.4811 62.144 44.5717 61.838C44.6624 61.5207 44.7247 61.1637 44.7587 60.767C44.8041 60.3704 44.8381 59.9567 44.8607 59.526L44.9967 55.854H52.8167V65H50.1647V57.384L50.7597 58.03H46.7477L47.3087 57.35L47.1897 59.645C47.1557 60.461 47.0877 61.209 46.9857 61.889C46.8951 62.569 46.7421 63.1584 46.5267 63.657C46.3114 64.1444 46.0224 64.524 45.6597 64.796C45.2971 65.0567 44.8324 65.187 44.2657 65.187C44.0617 65.187 43.8464 65.17 43.6197 65.136C43.3931 65.102 43.1494 65.051 42.8887 64.983Z" fill="white"/>
<path d="M59.8377 65.1358C58.795 65.1358 57.877 64.9318 57.0837 64.5238C56.3017 64.1158 55.6954 63.5605 55.2647 62.8578C54.834 62.1438 54.6187 61.3335 54.6187 60.4268C54.6187 59.5088 54.8284 58.6985 55.2477 57.9958C55.6784 57.2818 56.2619 56.7265 56.9986 56.3298C57.7353 55.9218 58.5684 55.7178 59.4977 55.7178C60.393 55.7178 61.1977 55.9105 61.9117 56.2958C62.637 56.6698 63.2094 57.2138 63.6287 57.9278C64.048 58.6305 64.2576 59.4748 64.2576 60.4608C64.2576 60.5628 64.252 60.6818 64.2407 60.8178C64.2294 60.9425 64.218 61.0615 64.2067 61.1748H56.7777V59.6278H62.8127L61.7927 60.0868C61.7927 59.6108 61.6964 59.1972 61.5037 58.8458C61.311 58.4945 61.0447 58.2225 60.7047 58.0298C60.3647 57.8258 59.968 57.7238 59.5147 57.7238C59.0614 57.7238 58.659 57.8258 58.3077 58.0298C57.9677 58.2225 57.7014 58.5002 57.5087 58.8628C57.316 59.2142 57.2197 59.6335 57.2197 60.1208V60.5288C57.2197 61.0275 57.3274 61.4695 57.5427 61.8548C57.7694 62.2288 58.0809 62.5178 58.4776 62.7218C58.8856 62.9145 59.3617 63.0108 59.9057 63.0108C60.393 63.0108 60.818 62.9372 61.1807 62.7898C61.5547 62.6425 61.8947 62.4215 62.2007 62.1268L63.6117 63.6568C63.1924 64.1328 62.6654 64.5012 62.0307 64.7618C61.396 65.0112 60.665 65.1358 59.8377 65.1358Z" fill="white"/>
<path d="M66.2905 65V55.854H68.9255V59.424H72.9035V55.854H75.5555V65H72.9035V61.583H68.9255V65H66.2905Z" fill="white"/>
<path d="M78.0942 65V55.854H80.7292V61.294L85.1832 55.854H87.6142V65H84.9792V59.56L80.5422 65H78.0942Z" fill="white"/>
<path d="M94.6345 65.1358C93.5918 65.1358 92.6738 64.9318 91.8805 64.5238C91.0985 64.1158 90.4921 63.5605 90.0615 62.8578C89.6308 62.1438 89.4155 61.3335 89.4155 60.4268C89.4155 59.5088 89.6251 58.6985 90.0445 57.9958C90.4751 57.2818 91.0588 56.7265 91.7955 56.3298C92.5321 55.9218 93.3651 55.7178 94.2945 55.7178C95.1898 55.7178 95.9945 55.9105 96.7085 56.2958C97.4338 56.6698 98.0061 57.2138 98.4255 57.9278C98.8448 58.6305 99.0545 59.4748 99.0545 60.4608C99.0545 60.5628 99.0488 60.6818 99.0375 60.8178C99.0261 60.9425 99.0148 61.0615 99.0035 61.1748H91.5745V59.6278H97.6095L96.5895 60.0868C96.5895 59.6108 96.4931 59.1972 96.3005 58.8458C96.1078 58.4945 95.8415 58.2225 95.5015 58.0298C95.1615 57.8258 94.7648 57.7238 94.3115 57.7238C93.8581 57.7238 93.4558 57.8258 93.1045 58.0298C92.7645 58.2225 92.4981 58.5002 92.3055 58.8628C92.1128 59.2142 92.0165 59.6335 92.0165 60.1208V60.5288C92.0165 61.0275 92.1241 61.4695 92.3395 61.8548C92.5661 62.2288 92.8778 62.5178 93.2745 62.7218C93.6825 62.9145 94.1585 63.0108 94.7025 63.0108C95.1898 63.0108 95.6148 62.9372 95.9775 62.7898C96.3515 62.6425 96.6915 62.4215 96.9975 62.1268L98.4085 63.6568C97.9891 64.1328 97.4621 64.5012 96.8275 64.7618C96.1928 65.0112 95.4618 65.1358 94.6345 65.1358Z" fill="white"/>
<path d="M110.254 65.1358C109.268 65.1358 108.39 64.9375 107.619 64.5408C106.848 64.1328 106.242 63.5718 105.8 62.8578C105.369 62.1438 105.154 61.3335 105.154 60.4268C105.154 59.5088 105.369 58.6985 105.8 57.9958C106.242 57.2818 106.848 56.7265 107.619 56.3298C108.39 55.9218 109.268 55.7178 110.254 55.7178C111.217 55.7178 112.056 55.9218 112.77 56.3298C113.484 56.7265 114.011 57.2988 114.351 58.0468L112.294 59.1518C112.056 58.7212 111.756 58.4038 111.393 58.1998C111.042 57.9958 110.656 57.8938 110.237 57.8938C109.784 57.8938 109.376 57.9958 109.013 58.1998C108.65 58.4038 108.361 58.6928 108.146 59.0668C107.942 59.4408 107.84 59.8942 107.84 60.4268C107.84 60.9595 107.942 61.4128 108.146 61.7868C108.361 62.1608 108.65 62.4498 109.013 62.6538C109.376 62.8578 109.784 62.9598 110.237 62.9598C110.656 62.9598 111.042 62.8635 111.393 62.6708C111.756 62.4668 112.056 62.1438 112.294 61.7018L114.351 62.8238C114.011 63.5605 113.484 64.1328 112.77 64.5408C112.056 64.9375 111.217 65.1358 110.254 65.1358Z" fill="white"/>
<path d="M122.018 68.434C121.542 68.434 121.072 68.3604 120.607 68.213C120.142 68.0657 119.763 67.8617 119.468 67.601L120.437 65.714C120.641 65.8954 120.873 66.037 121.134 66.139C121.406 66.241 121.672 66.292 121.933 66.292C122.307 66.292 122.602 66.2014 122.817 66.02C123.044 65.85 123.248 65.561 123.429 65.153L123.905 64.031L124.109 63.742L127.39 55.854H129.94L125.809 65.561C125.514 66.2977 125.174 66.8757 124.789 67.295C124.415 67.7144 123.996 68.009 123.531 68.179C123.078 68.349 122.573 68.434 122.018 68.434ZM123.582 65.357L119.502 55.854H122.239L125.401 63.504L123.582 65.357Z" fill="white"/>
<path d="M131.219 65V55.854H133.99L137.441 62.11H136.336L140.025 55.854H142.507L142.541 65H140.144V58.574L140.552 58.846L137.407 64.116H136.285L133.123 58.659L133.616 58.54V65H131.219Z" fill="white"/>
<path d="M149.366 65.1358C148.391 65.1358 147.524 64.9318 146.765 64.5238C146.017 64.1158 145.422 63.5605 144.98 62.8578C144.549 62.1438 144.334 61.3335 144.334 60.4268C144.334 59.5088 144.549 58.6985 144.98 57.9958C145.422 57.2818 146.017 56.7265 146.765 56.3298C147.524 55.9218 148.391 55.7178 149.366 55.7178C150.329 55.7178 151.19 55.9218 151.95 56.3298C152.709 56.7265 153.304 57.2762 153.735 57.9788C154.165 58.6815 154.381 59.4975 154.381 60.4268C154.381 61.3335 154.165 62.1438 153.735 62.8578C153.304 63.5605 152.709 64.1158 151.95 64.5238C151.19 64.9318 150.329 65.1358 149.366 65.1358ZM149.366 62.9598C149.808 62.9598 150.204 62.8578 150.556 62.6538C150.907 62.4498 151.185 62.1608 151.389 61.7868C151.593 61.4015 151.695 60.9482 151.695 60.4268C151.695 59.8942 151.593 59.4408 151.389 59.0668C151.185 58.6928 150.907 58.4038 150.556 58.1998C150.204 57.9958 149.808 57.8938 149.366 57.8938C148.924 57.8938 148.527 57.9958 148.176 58.1998C147.824 58.4038 147.541 58.6928 147.326 59.0668C147.122 59.4408 147.02 59.8942 147.02 60.4268C147.02 60.9482 147.122 61.4015 147.326 61.7868C147.541 62.1608 147.824 62.4498 148.176 62.6538C148.527 62.8578 148.924 62.9598 149.366 62.9598Z" fill="white"/>
<path d="M156.205 65V55.854H158.976L162.427 62.11H161.322L165.011 55.854H167.493L167.527 65H165.13V58.574L165.538 58.846L162.393 64.116H161.271L158.109 58.659L158.602 58.54V65H156.205Z" fill="white"/>
<path d="M0 101.41V75.498H22.1784V81.1616H7.39281V85.3445H14.2549C17.49 85.3445 19.9543 86.0108 21.6477 87.3434C23.3663 88.676 24.2257 90.6009 24.2257 93.118C24.2257 95.7092 23.2652 97.7451 21.3444 99.2258C19.4235 100.682 16.7318 101.41 13.2691 101.41H0ZM7.39281 96.1534H12.7763C14.0147 96.1534 14.9625 95.9066 15.6197 95.413C16.3021 94.9195 16.6433 94.2162 16.6433 93.3031C16.6433 91.4769 15.3543 90.5638 12.7763 90.5638H7.39281V96.1534Z" fill="white"/>
<path d="M25.1875 101.41L36.9022 75.498H44.2951L56.0477 101.41H48.2379L39.0632 79.0886H42.0204L32.8457 101.41H25.1875ZM31.5946 96.3755L33.5281 90.971H46.4939L48.4275 96.3755H31.5946Z" fill="white"/>
<path d="M56.9663 99.4108L59.2031 94.2654C60.3405 94.833 61.5284 95.2649 62.7668 95.561C64.0053 95.8571 65.2058 96.0299 66.3685 96.0793C67.5311 96.1286 68.58 96.0546 69.5151 95.8572C70.4756 95.635 71.2338 95.3019 71.7898 94.8577C72.3459 94.4135 72.6239 93.8336 72.6239 93.1179C72.6239 92.3282 72.2827 91.7606 71.6003 91.4151C70.9432 91.045 70.0712 90.8599 68.9844 90.8599H62.1981V85.4924H68.3778C69.3888 85.4924 70.1723 85.295 70.7283 84.9002C71.2844 84.5053 71.5624 83.9747 71.5624 83.3084C71.5624 82.6668 71.3223 82.1609 70.8421 81.7907C70.3618 81.3959 69.7173 81.1244 68.9085 80.9764C68.0998 80.8036 67.1899 80.7419 66.1789 80.7913C65.1679 80.8406 64.119 81.0257 63.0322 81.3465C61.9454 81.6427 60.8965 82.0499 59.8855 82.5681L57.6866 77.0896C59.4811 76.2259 61.3641 75.6336 63.3355 75.3128C65.3069 74.992 67.2278 74.9179 69.0981 75.0907C70.9684 75.2634 72.6618 75.6706 74.1783 76.3122C75.6948 76.9292 76.8953 77.7559 77.7799 78.7924C78.6898 79.8289 79.1447 81.0504 79.1447 82.457C79.1447 83.6909 78.8035 84.7891 78.1211 85.7515C77.4387 86.714 76.5162 87.4667 75.3536 88.0096C74.1909 88.5525 72.8514 88.8239 71.3349 88.8239L71.5245 87.2692C73.2684 87.2692 74.7849 87.5654 76.0739 88.1576C77.3882 88.7499 78.3991 89.5643 79.1068 90.6008C79.8398 91.6125 80.2063 92.7848 80.2063 94.1174C80.2063 95.3759 79.8651 96.4988 79.1827 97.4859C78.5255 98.4483 77.603 99.2627 76.4151 99.929C75.2272 100.595 73.8624 101.089 72.3206 101.41C70.8041 101.755 69.1739 101.916 67.43 101.891C65.686 101.891 63.9168 101.681 62.1223 101.262C60.3531 100.842 58.6344 100.225 56.9663 99.4108Z" fill="white"/>
<path d="M81.6113 101.41L93.326 75.498H100.719L112.471 101.41H104.662L95.487 79.0886H98.4441L89.2695 101.41H81.6113ZM88.0184 96.3755L89.9519 90.971H102.918L104.851 96.3755H88.0184Z" fill="white"/>
<path d="M116.871 101.854C116.366 101.854 115.822 101.817 115.241 101.743C114.685 101.669 114.091 101.558 113.459 101.41L113.876 95.413C114.23 95.4871 114.571 95.5241 114.9 95.5241C115.936 95.5241 116.72 95.1293 117.25 94.3396C117.781 93.5252 118.148 92.39 118.35 90.934C118.577 89.478 118.716 87.7752 118.767 85.8257L119.146 75.498H140.528V101.41H133.135V79.6809L134.766 81.3096H124.037L125.553 79.6068L125.364 85.5295C125.288 88.0467 125.111 90.3171 124.833 92.3406C124.555 94.3396 124.112 96.0547 123.506 97.486C122.899 98.8926 122.053 99.9785 120.966 100.743C119.904 101.484 118.539 101.854 116.871 101.854Z" fill="white"/>
<path d="M159.74 83.7527C162.975 83.7527 165.477 84.4561 167.246 85.8627C169.041 87.2693 169.938 89.3793 169.938 92.1926C169.938 95.228 168.939 97.523 166.943 99.0777C164.946 100.632 162.216 101.41 158.754 101.41H146.205V75.498H153.598V83.7527H159.74ZM158.261 96.1534C159.525 96.1534 160.523 95.8202 161.256 95.1539C162.014 94.4876 162.393 93.5499 162.393 92.3406C162.393 91.1068 162.014 90.243 161.256 89.7495C160.523 89.2312 159.525 88.9721 158.261 88.9721H153.598V96.1534H158.261Z" fill="white"/>
<path d="M176.702 101.41V79.6809L178.37 81.3096H168.551V75.498H192.208V81.3096H182.427L184.095 79.6809V101.41H176.702Z" fill="white"/>
<path d="M196.037 95.5981C197.528 96.0177 198.741 96.1534 199.676 96.0053C200.637 95.8326 201.484 95.2156 202.216 94.1545L203.505 92.3036L204.15 91.6003L212.415 75.498H219.732L208.737 95.5241C207.651 97.4983 206.349 99.0284 204.832 100.114C203.341 101.2 201.698 101.817 199.904 101.965C198.109 102.113 196.226 101.792 194.255 101.002L196.037 95.5981ZM204.036 97.486L191.904 75.498H199.828L208.131 92.3036L204.036 97.486Z" fill="white"/>
<path d="M222.14 101.41V75.498H228.319L239.276 93.118H236.015L246.745 75.498H252.924L253 101.41H246.062L246.024 85.7516H247.199L239.2 98.8556H235.864L227.637 85.7516H229.04V101.41H222.14Z" fill="white"/>
<path d="M182 67H176V37.8L234 0L288 38V111H260V105H282V41L234 7L182 41V67Z" fill="white"/>
</g>
</g>
</g>
<defs>
<clipPath id="clip0_807_1691">
<rect width="288" height="112" fill="white"/>
</clipPath>
</defs>
</svg>
