<svg width="48" height="48" viewBox="0 0 48 48" fill="none" xmlns="http://www.w3.org/2000/svg">
<path d="M29.1766 10.462C32.6448 10.462 36.1457 12.5151 36.1457 17.1034C36.1457 17.8813 36.7873 18.5113 37.5796 18.5113C38.3718 18.5113 39.0135 17.8813 39.0135 17.1034C39.0135 10.8952 34.0655 7.64618 29.1774 7.64618C26.6071 7.64618 24.1921 8.4851 22.3776 10.0075C20.2998 11.7518 19.2014 14.2053 19.2014 17.1043V20.2427C19.2015 20.5009 19.2739 20.7542 19.4108 20.9746C19.5477 21.1951 19.7437 21.3744 19.9774 21.4928C20.2112 21.6111 20.4737 21.6642 20.7361 21.6462C20.9985 21.6282 21.2509 21.5398 21.4657 21.3906C22.376 20.7584 24.2403 19.8278 25.3945 20.0376C25.7277 20.0978 25.953 20.2443 26.148 20.5287C26.4487 20.9665 26.5255 21.3662 26.3966 21.8268C25.9197 23.5261 22.9136 25.4633 21.1301 26.2847C20.4139 26.615 20.104 27.4524 20.4403 28.1564C20.6843 28.6674 21.2007 28.9679 21.7399 28.9679C21.9426 28.9679 22.1492 28.9259 22.3442 28.8344C22.9384 28.5622 28.1738 26.0727 29.1587 22.5782C29.5122 21.3236 29.2923 20.0697 28.5241 18.9516C27.898 18.0425 26.9908 17.4583 25.9002 17.2653C24.5906 17.0297 23.1948 17.4011 22.0677 17.8678V17.1036C22.0677 12.5403 25.7526 10.462 29.1766 10.462Z" fill="#333333"/>
<path d="M29.269 2C25.1343 2 21.2575 3.34312 18.3525 5.7791C15.0481 8.55299 13.3012 12.4693 13.3012 17.1034C13.3012 17.8813 13.9428 18.5113 14.7351 18.5113C15.5274 18.5113 16.169 17.8813 16.169 17.1034C16.169 8.6605 22.9602 4.81505 29.2698 4.81505C32.6845 4.81505 35.8451 5.90268 38.1676 7.87727C40.7612 10.0829 42.133 13.2733 42.133 17.1042C42.133 23.5962 39.28 25.7378 36.2599 28.006C33.7774 29.8707 30.9623 31.9841 30.1227 36.4611C29.548 39.5279 27.9602 43.1842 23.6647 43.1842C19.9363 43.1842 17.526 40.6452 17.526 36.7158C17.526 35.9379 16.8843 35.3079 16.0921 35.3079C15.2998 35.3079 14.6582 35.9379 14.6582 36.7158C14.6582 42.182 18.3617 46 23.6647 46C28.4852 46 31.8673 42.7098 32.9423 36.9721C33.5831 33.5636 35.6307 32.0246 38.0021 30.2437C41.2824 27.7802 45 24.988 45 17.105C45 6.72639 36.8455 2 29.269 2ZM5.44884 20.1785C4.89035 19.6278 3.98229 19.6278 3.42153 20.1762C2.86076 20.7246 2.85919 21.6162 3.41916 22.1668C4.73499 23.4625 5.46048 25.1824 5.46048 27.0106C5.46048 28.8364 4.73499 30.5547 3.41916 31.8506C2.8591 32.4005 2.86067 33.292 3.42153 33.8411C3.55459 33.9716 3.71254 34.0751 3.88633 34.1456C4.06013 34.2162 4.24638 34.2524 4.43444 34.2523C4.80265 34.2523 5.16929 34.1142 5.44892 33.8389C7.30618 32.0123 8.32758 29.587 8.32758 27.0106C8.32758 24.4313 7.30609 22.0052 5.44884 20.1785Z" fill="#333333"/>
<path d="M7.27038 15.514C6.70953 16.0632 6.70804 16.9548 7.26732 17.5054C9.87333 20.071 11.3096 23.4772 11.3096 27.0961C11.3096 30.712 9.87333 34.1173 7.26732 36.6838C6.70804 37.2345 6.70962 38.126 7.27038 38.6751C7.40348 38.8055 7.56145 38.9088 7.73525 38.9793C7.90905 39.0497 8.09528 39.0858 8.28329 39.0855C8.6515 39.0855 9.01884 38.9475 9.29848 38.6737C12.4443 35.5748 14.1765 31.464 14.1765 27.0968C14.1765 22.7274 12.4443 18.6151 9.29848 15.517C8.73841 14.9672 7.83123 14.9656 7.27038 15.514Z" fill="#333333"/>
</svg>
