<svg width="48" height="48" viewBox="0 0 48 48" fill="none" xmlns="http://www.w3.org/2000/svg">
<path d="M44.7109 26.3077H3.28906C2.57716 26.3077 2 26.8932 2 27.6154C2 28.3376 2.57716 28.9231 3.28906 28.9231H21.7233L15.1602 40.0195C14.6454 40.8902 15.2651 42 16.2656 42H31.7344C32.7353 42 33.3545 40.8899 32.8397 40.0195L26.2767 28.9231H44.7109C45.4228 28.9231 46 28.3376 46 27.6154C46 26.8932 45.4228 26.3077 44.7109 26.3077ZM18.5424 39.3846L24 30.1571L29.4576 39.3846H18.5424ZM9.73438 23.6923C13.9991 23.6923 17.4688 20.1725 17.4688 15.8462C17.4688 11.5198 13.9991 8 9.73438 8C5.46964 8 2 11.5198 2 15.8462C2 20.1725 5.46964 23.6923 9.73438 23.6923ZM9.73438 10.6154C12.5775 10.6154 14.8906 12.9619 14.8906 15.8462C14.8906 18.7304 12.5775 21.0769 9.73438 21.0769C6.89122 21.0769 4.57812 18.7304 4.57812 15.8462C4.57812 12.9619 6.89122 10.6154 9.73438 10.6154ZM38.2656 23.6923C42.5304 23.6923 46 20.1725 46 15.8462C46 11.5198 42.5304 8 38.2656 8C34.0009 8 30.5312 11.5198 30.5312 15.8462C30.5312 20.1725 34.0009 23.6923 38.2656 23.6923ZM38.2656 10.6154C41.1088 10.6154 43.4219 12.9619 43.4219 15.8462C43.4219 18.7304 41.1088 21.0769 38.2656 21.0769C35.4225 21.0769 33.1094 18.7304 33.1094 15.8462C33.1094 12.9619 35.4225 10.6154 38.2656 10.6154Z" fill="#333333"/>
</svg>
