<svg width="80" height="80" viewBox="0 0 80 80" fill="none" xmlns="http://www.w3.org/2000/svg">
<path d="M4 48H0V27L41 0L80 27V80H60V75H76V29L41 5L4 29V48Z" fill="url(#paint0_linear_701_150)"/>
<path d="M60.7516 26.0304C60.6705 25.7343 60.4943 25.473 60.2502 25.2868C60.0061 25.1006 59.7075 24.9999 59.4005 25C59.1316 25 52.7849 25.056 51.1159 29.8552C50.0869 32.8162 51.1117 35.0996 52.32 36.305C52.061 36.7726 51.8426 37.285 51.6802 37.8212C50.7321 36.5705 49.6261 35.4477 48.3899 34.4808C49.0648 32.077 48.6517 27.7104 44.5886 25.9128C43.2165 25.308 41.6287 25 39.866 25C33.8147 25 27.4609 28.584 27.1921 28.7366C27.0123 28.8391 26.8574 28.9803 26.7387 29.1499C26.6199 29.3195 26.5403 29.5133 26.5055 29.7173C26.4707 29.9214 26.4815 30.1306 26.5373 30.33C26.5931 30.5293 26.6924 30.7138 26.8281 30.8702C26.9121 30.9654 27.5729 31.7214 28.6062 32.7672C22.7103 35.906 19 41.9848 19 48.8C19 58.8352 27.1655 67 37.2016 67C47.2376 67 55.4031 58.8352 55.4031 48.8C55.4031 46.2884 54.8571 43.8552 53.891 41.611C53.961 40.225 54.3082 38.2762 54.8487 37.495C55.0153 37.5132 55.1777 37.5594 55.3457 37.5594C57.6727 37.5594 59.8107 35.6806 60.4267 33.0934C61.4656 28.7394 60.781 26.1396 60.7516 26.0304ZM39.866 27.8C41.2367 27.8 42.445 28.0268 43.4559 28.4734C45.5939 29.4198 45.9145 31.4274 45.8319 32.7644C44.0821 31.825 42.1894 31.1803 40.23 30.8562C39.8635 30.7959 39.488 30.8836 39.1862 31.1001C38.8844 31.3165 38.6809 31.644 38.6206 32.0105C38.5602 32.377 38.648 32.7524 38.8645 33.0542C39.0809 33.356 39.4085 33.5595 39.775 33.6198C41.5643 33.9138 43.2893 34.5466 44.8476 35.4412C43.5637 37.5412 42.0474 38.132 39.8912 37.4936C36.3965 36.4604 32.2087 32.4732 30.1744 30.362C32.3011 29.3652 36.2229 27.8 39.866 27.8ZM21.8002 48.8C21.8002 47.3496 22.0075 45.9426 22.3841 44.6H31.6011C32.3725 44.6 33.0012 45.2286 33.0012 46C33.0012 46.7714 32.3725 47.4 31.6011 47.4H27.4007C27.0294 47.4 26.6733 47.5475 26.4107 47.81C26.1481 48.0726 26.0006 48.4287 26.0006 48.8C26.0006 49.5714 25.3719 50.2 24.6005 50.2H21.8702C21.8282 49.738 21.8002 49.2718 21.8002 48.8ZM22.3967 53H24.6005C25.469 52.9991 26.3159 52.7296 27.0251 52.2282C27.7343 51.7269 28.271 51.0184 28.5614 50.2H31.6011C33.9169 50.2 35.8014 48.3156 35.8014 46C35.8014 43.6844 33.9169 41.8 31.6011 41.8H23.472C25.0391 38.7172 27.6059 36.2572 30.7526 34.8224C33.1202 36.9588 36.2173 39.3276 39.0959 40.1788C39.9052 40.4182 40.6907 40.54 41.4313 40.54C44.3702 40.54 46.1385 38.6836 47.1606 37.068C49.8545 39.3647 51.6755 42.5188 52.3172 46H49.8026C47.4868 46 45.6023 47.8844 45.6023 50.2V51.6H42.802C39.7134 51.6 37.2016 54.1116 37.2016 57.2C37.2016 60.2884 39.7134 62.8 42.802 62.8H43.5805C41.6343 63.6904 39.4782 64.2 37.2016 64.2C30.1674 64.2 24.2322 59.454 22.3967 53ZM47.7389 60H42.802C41.2577 60 40.0018 58.7442 40.0018 57.2C40.0018 55.6558 41.2577 54.4 42.802 54.4H47.0024C47.3737 54.4 47.7299 54.2525 47.9924 53.99C48.255 53.7274 48.4025 53.3713 48.4025 53V50.2C48.4025 49.4286 49.0312 48.8 49.8026 48.8H52.6029C52.6029 53.2142 50.7267 57.1902 47.7389 60ZM57.7035 32.4452C57.3101 34.0972 55.7811 35.227 54.5336 34.5382C54.1878 34.3464 52.9613 33.0738 53.7608 30.775C54.4426 28.8122 56.743 28.143 58.1851 27.9162C58.2356 28.8822 58.1851 30.4236 57.7035 32.4452Z" fill="#333333"/>
<defs>
<linearGradient id="paint0_linear_701_150" x1="80" y1="40" x2="-6.73638e-07" y2="40" gradientUnits="userSpaceOnUse">
<stop stop-color="#A5E427"/>
<stop offset="1" stop-color="#1EBC61"/>
</linearGradient>
</defs>
</svg>
