<svg width="80" height="80" viewBox="0 0 80 80" fill="none" xmlns="http://www.w3.org/2000/svg">
<path d="M37.1875 22.8125C39.0587 22.8125 40.6485 24.0375 41.1991 25.7274C34.9794 26.5222 30.1562 31.8491 30.1562 38.2812C30.1562 39.7698 30.4165 41.705 30.8652 43.6301C28.7625 44.8469 27.3438 47.1195 27.3438 49.7188C27.3438 53.1511 29.8158 56.017 33.0732 56.6292C33.83 61.4223 39.1699 68 42.8125 68C46.5064 68 51.8061 61.3513 52.5518 56.6292C55.8092 56.017 58.2812 53.1511 58.2812 49.7188C58.2812 47.1195 56.8625 44.8469 54.7598 43.6301C55.2085 41.705 55.4688 39.7698 55.4688 38.2812C55.4688 31.7333 50.4704 26.3309 44.0887 25.689C43.4603 22.452 40.6055 20 37.1875 20C33.1929 20 30.6381 21.2383 29.4951 21.5506C26.9878 22.3871 24.3619 22.8133 21.7188 22.8125V25.625C24.6695 25.625 27.5851 25.1518 30.3845 24.2188C31.5786 23.8888 33.7371 22.8125 37.1875 22.8125ZM52.6562 38.2812C52.6562 39.485 52.4412 41.1113 52.0783 42.7379C48.9129 42.3646 45.9617 44.134 44.7603 47.0164L47.3563 48.0985C48.0142 46.5199 49.5426 45.5 51.25 45.5C53.5762 45.5 55.4688 47.3925 55.4688 49.7188C55.4688 52.045 53.5762 53.9375 51.25 53.9375H49.8438V55.3438C49.8438 59.388 44.6683 65.1875 42.8125 65.1875C40.9665 65.1875 35.7812 59.4053 35.7812 55.3438V53.9375H34.375C32.0488 53.9375 30.1562 52.045 30.1562 49.7188C30.1562 47.3925 32.0488 45.5 34.375 45.5C36.0824 45.5 37.6108 46.5199 38.2687 48.0984L40.8647 47.0163C39.6625 44.1318 36.7096 42.3648 33.5467 42.7378C33.1838 41.1113 32.9688 39.485 32.9688 38.2812C32.9688 32.8534 37.3847 28.4375 42.8125 28.4375C48.2403 28.4375 52.6562 32.8534 52.6562 38.2812Z" fill="#333333"/>
<path fill-rule="evenodd" clip-rule="evenodd" d="M0 48H4V29L76 75H60V80H80V27L41 0L0 27V48ZM41 5L76 29V70L7.08333 27L41 5Z" fill="url(#paint0_linear_701_233)"/>
<defs>
<linearGradient id="paint0_linear_701_233" x1="80" y1="40" x2="-6.73638e-07" y2="40" gradientUnits="userSpaceOnUse">
<stop stop-color="#A5E427"/>
<stop offset="1" stop-color="#1EBC61"/>
</linearGradient>
</defs>
</svg>
