<svg width="80" height="80" viewBox="0 0 80 80" fill="none" xmlns="http://www.w3.org/2000/svg">
<path d="M56.5366 53.3598C56.8453 52.1029 57.0008 50.8152 56.9999 49.5231C56.9999 49.2883 56.6809 45.2386 56.3938 41.6432C56.2466 39.7988 53.7879 39.1672 52.7206 40.6995L50.6882 43.6179C50.6882 43.6179 52.2524 34.2408 47.1246 29.2707C42.9058 25.1818 37.3153 23.2002 31.8623 24.3003C32.6281 24.9013 33.3351 25.5697 33.9744 26.2968C36.3912 29.0431 35.4943 33.2243 32.1878 34.8853C26.7297 37.6273 23 43.153 22.9999 49.523C22.9998 58.6142 30.7217 66.0529 40.1015 65.9997C44.759 65.9733 48.9725 64.1316 52.0272 61.1677M47.4612 59.754C47.4612 63.7558 44.1207 66 40 66C35.8793 66 32.5388 63.7558 32.5388 59.754C32.5388 54.3761 40 49.5234 40 49.5234C40 49.5234 47.4612 54.2629 47.4612 59.754Z" stroke="#333333" stroke-width="3" stroke-miterlimit="10" stroke-linecap="round" stroke-linejoin="round"/>
<path fill-rule="evenodd" clip-rule="evenodd" d="M0 48H4V29L76 75H60V80H80V27L41 0L0 27V48ZM41 5L76 29V70L7.08333 27L41 5Z" fill="url(#paint0_linear_701_178)"/>
<defs>
<linearGradient id="paint0_linear_701_178" x1="80" y1="40" x2="-6.73638e-07" y2="40" gradientUnits="userSpaceOnUse">
<stop stop-color="#A5E427"/>
<stop offset="1" stop-color="#1EBC61"/>
</linearGradient>
</defs>
</svg>
