<svg width="80" height="80" viewBox="0 0 80 80" fill="none" xmlns="http://www.w3.org/2000/svg">
<g clip-path="url(#clip0_701_188)">
<path d="M51.9412 54.7372C52.0157 54.6972 52.0903 54.6576 52.1643 54.617C55.6726 52.6912 58.6626 49.8886 60.8112 46.5123L63.7793 41.8481L61.3971 40.3323L58.429 44.9964C54.5477 51.0958 47.9141 54.7372 40.6844 54.7372C33.4548 54.7372 26.8214 51.0958 22.9399 44.9964L21.8668 43.31L25.2173 44.0048L25.7906 41.2401L17.7059 39.5636L16.0295 47.6483L18.7942 48.2216L19.495 44.8419L20.5578 46.5122C22.7064 49.8886 25.6964 52.6911 29.2046 54.6169C29.2787 54.6575 29.3533 54.6972 29.4278 54.7371H16V64.1488H64V54.7371H51.9412V54.7372ZM31.9427 57.5607H35.6877L34.7465 61.3254H31.0015L31.9427 57.5607ZM28.091 61.3254H24.4636L25.4048 57.5607H29.0322L28.091 61.3254ZM38.5981 57.5607H42.3432L41.402 61.3254H37.6569L38.5981 57.5607ZM45.2536 57.5607H48.9986L48.0574 61.3254H44.3124L45.2536 57.5607ZM51.909 57.5607H55.6541L54.7129 61.3254H50.9678L51.909 57.5607ZM18.8235 57.5607H22.4944L21.5532 61.3254H18.8235V57.5607ZM61.1765 61.3254H57.6232L58.5644 57.5607H61.1765V61.3254Z" fill="#333333"/>
<path d="M40.6844 51.9136C46.912 51.9136 51.9785 46.8471 51.9785 40.6195C51.9785 38.022 50.2089 34.5391 46.7188 30.2678C44.22 27.2097 41.759 24.8695 41.6555 24.7713L40.6844 23.851L39.7133 24.7713C39.6098 24.8694 37.1488 27.2097 34.6501 30.2678C31.16 34.5392 29.3904 38.0221 29.3904 40.6195C29.3904 46.8471 34.4568 51.9136 40.6844 51.9136ZM36.8182 32.0766C38.2782 30.2878 39.7536 28.7288 40.6844 27.7828C41.6153 28.7288 43.0906 30.2878 44.5506 32.0766C47.5198 35.7147 49.155 38.7485 49.155 40.6195C49.155 45.2902 45.3551 49.0901 40.6844 49.0901C36.0137 49.0901 32.2138 45.2902 32.2138 40.6195C32.2139 38.7486 33.8491 35.7147 36.8182 32.0766Z" fill="#333333"/>
</g>
<path fill-rule="evenodd" clip-rule="evenodd" d="M0 48H4V29L76 75H60V80H80V27L41 0L0 27V48ZM41 5L76 29V70L7.08333 27L41 5Z" fill="url(#paint0_linear_701_188)"/>
<defs>
<linearGradient id="paint0_linear_701_188" x1="80" y1="40" x2="-6.73638e-07" y2="40" gradientUnits="userSpaceOnUse">
<stop stop-color="#A5E427"/>
<stop offset="1" stop-color="#1EBC61"/>
</linearGradient>
<clipPath id="clip0_701_188">
<rect width="48" height="48" fill="white" transform="translate(16 20)"/>
</clipPath>
</defs>
</svg>
