<?xml version="1.0" encoding="utf-8"?><svg width="48" height="48" xmlns="http://www.w3.org/2000/svg" viewBox="0 0 48 48"><g clip-path="url(#prefix__clip0_417_3123)"><path fill-rule="evenodd" clip-rule="evenodd" d="M13.035 34.813A1.464 1.464 0 0113 34.5c0-1.698.43-3.37 1.255-4.875a10.666 10.666 0 013.482-3.76V8.994c0-1.59.662-3.114 1.839-4.238A6.43 6.43 0 0124.014 3h.002c1.664 0 3.26.632 4.438 1.756 1.177 1.124 1.838 2.648 1.838 4.238v16.89a10.661 10.661 0 013.462 3.756c.82 1.5 1.247 3.168 1.246 4.86C35 40.296 30.077 45 24.016 45c-5.953 0-10.809-4.536-10.981-10.187zm7.823-8.364c.052.301.005.61-.132.885a1.529 1.529 0 01-.636.656 7.703 7.703 0 00-2.819 2.633 7.261 7.261 0 00-1.125 3.61c.016.087.025.175.025.267 0 1.988.826 3.894 2.297 5.3 1.471 1.406 3.466 2.198 5.548 2.2 2.08-.003 4.076-.794 5.546-2.2 1.47-1.407 2.296-3.313 2.296-5.3a7.244 7.244 0 00-1.058-3.762 7.69 7.69 0 00-2.89-2.748 1.527 1.527 0 01-.648-.68 1.438 1.438 0 01-.11-.915l-.001-.041V8.994c0-.794-.33-1.556-.918-2.117A3.212 3.212 0 0024.016 6h-.002a3.21 3.21 0 00-2.217.877 2.927 2.927 0 00-.918 2.117v17.215c0 .082-.008.163-.02.24zm4.729 3.807a4.672 4.672 0 012.479 1.97c.558.915.762 1.988.574 3.031a4.461 4.461 0 01-1.6 2.675 4.851 4.851 0 01-6.063.01 4.459 4.459 0 01-1.608-2.681 4.33 4.33 0 01.58-3.04 4.67 4.67 0 012.496-1.964V10.5c0-.398.165-.78.46-1.06a1.61 1.61 0 011.11-.44c.417 0 .817.158 1.111.44.295.28.46.662.46 1.06v19.756z"/><path d="M35.423 17.56c.271.282.64.44 1.022.44h10.11a1.42 1.42 0 001.022-.44A1.53 1.53 0 0048 16.5c0-.398-.152-.78-.423-1.06a1.42 1.42 0 00-1.022-.44h-10.11a1.42 1.42 0 00-1.022.44A1.53 1.53 0 0035 16.5c0 .398.152.78.423 1.06zm0 6c.271.282.64.44 1.022.44h5.776c.384 0 .751-.158 1.022-.44a1.53 1.53 0 00.424-1.06c0-.398-.153-.78-.424-1.06a1.42 1.42 0 00-1.022-.44h-5.776a1.42 1.42 0 00-1.022.44A1.53 1.53 0 0035 22.5c0 .398.152.78.423 1.06zm0-12c.271.282.64.44 1.022.44h5.776c.384 0 .751-.158 1.022-.44a1.53 1.53 0 00.424-1.06c0-.398-.153-.78-.424-1.06A1.42 1.42 0 0042.221 9h-5.776a1.42 1.42 0 00-1.022.44A1.53 1.53 0 0035 10.5c0 .398.152.78.423 1.06zm-35 6c.271.282.639.44 1.022.44h10.107c.383 0 .75-.158 1.022-.44a1.53 1.53 0 00.423-1.06c0-.398-.152-.78-.423-1.06a1.419 1.419 0 00-1.022-.44H1.445c-.383 0-.75.158-1.022.44A1.53 1.53 0 000 16.5c0 .398.152.78.423 1.06zm4.336-6c.27.282.638.44 1.021.44h5.775c.383 0 .75-.158 1.022-.44A1.53 1.53 0 0013 10.5c0-.398-.152-.78-.423-1.06A1.419 1.419 0 0011.555 9H5.78c-.383 0-.75.158-1.021.44a1.53 1.53 0 00-.424 1.06c0 .398.153.78.424 1.06zm0 12c.27.282.638.44 1.021.44h5.775c.383 0 .75-.158 1.022-.44A1.53 1.53 0 0013 22.5c0-.398-.152-.78-.423-1.06a1.419 1.419 0 00-1.022-.44H5.78c-.383 0-.75.158-1.021.44a1.53 1.53 0 00-.424 1.06c0 .398.153.78.424 1.06z"/></g></svg>