<?xml version="1.0" encoding="utf-8"?><svg width="48" height="48" xmlns="http://www.w3.org/2000/svg" viewBox="0 0 48 48"><g clip-path="url(#clip0_417_3181)"><path fill-rule="evenodd" clip-rule="evenodd" d="M16.066 3.33c6.015-1.213 12.09.99 16.603 5.364 2.949 2.859 3.894 6.885 4.155 9.989.022.262.04.52.053.772 2.058-1.42 5.284-.293 5.512 2.57.144 1.798.295 3.71.411 5.203.11 1.428.2 2.597.2 2.795h-3l-.005-.067-.007-.103-.038-.544a480.83 480.83 0 00-.14-1.849c-.116-1.49-.268-3.4-.411-5.197a.399.399 0 00-.1-.251.548.548 0 00-.27-.154c-.242-.062-.448.014-.577.2l-2.033 2.918a1.5 1.5 0 01-2.71-1.102v-.002l.002-.013.01-.064.036-.272c.03-.243.068-.602.1-1.051.062-.901.095-2.15-.022-3.537-.239-2.828-1.076-5.975-3.254-8.086-3.097-3.002-6.929-4.73-10.81-4.842 2.882 3.52 1.652 8.679-2.41 10.72C12.373 19.231 9.001 24.26 9 30.023c0 5.113 2.712 9.683 6.833 12.392a7.84 7.84 0 01-.294-2.161c0-3.326 2.257-6.26 4.164-8.187a27.363 27.363 0 013.948-3.28l.02-.015.007-.004.003-.002.819 1.257.805-1.266.003.002.007.005.021.013a9.807 9.807 0 01.335.225 26.439 26.439 0 013.622 3.019c1.916 1.922 4.168 4.854 4.168 8.233a7.83 7.83 0 01-.303 2.193 15.475 15.475 0 002.325-1.856 1.5 1.5 0 012.089 2.153C34.246 45.972 29.663 47.972 24.61 48 14.444 48.058 6 39.991 6 30.024c0-6.977 4.086-13 10.015-15.979 2.473-1.242 3.068-4.286 1.333-6.257a14.311 14.311 0 00-1.912-1.807 1.5 1.5 0 01.63-2.65zM24.5 30.025l.805-1.266a1.503 1.503 0 00-1.623.009l.818 1.257zm.008 1.834a24.35 24.35 0 00-2.673 2.32c-1.823 1.842-3.296 4.024-3.296 6.077 0 1.536.62 2.664 1.612 3.444 1.029.809 2.544 1.302 4.349 1.302 1.805 0 3.32-.493 4.349-1.302.992-.78 1.612-1.908 1.612-3.444 0-2.113-1.479-4.296-3.293-6.116a23.44 23.44 0 00-2.66-2.281z"/><path d="M40 29.5a1.5 1.5 0 013 0v1a1.5 1.5 0 01-3 0v-1z"/></g></svg>