<?xml version="1.0" encoding="utf-8"?><svg width="48" height="48" fill="none" xmlns="http://www.w3.org/2000/svg" viewBox="0 0 48 48"><path fill-rule="evenodd" clip-rule="evenodd" d="M45 11.4A8.4 8.4 0 0036.6 3H11.4A8.4 8.4 0 003 11.4V31a8.4 8.4 0 008.4 8.4h8.4a1.4 1.4 0 100-2.8h-8.4A5.6 5.6 0 015.8 31V11.4a5.6 5.6 0 015.6-5.6h4.2v7a4.2 4.2 0 004.2 4.2h8.4a4.2 4.2 0 004.2-4.2v-7h4.2a5.6 5.6 0 015.6 5.6v14a1.4 1.4 0 102.8 0v-14zM29.6 5.8H18.4v7a1.4 1.4 0 001.4 1.4h8.4a1.4 1.4 0 001.4-1.4v-7z" fill="#333"/><path fill-rule="evenodd" clip-rule="evenodd" d="M31.397 23.22a1.4 1.4 0 011.164-.62h.938c2.599 0 4.508 2.457 3.834 4.977l-.037.136h1.84c3.576 0 6.328 3.167 5.799 6.702l-.774 6.356A4.82 4.82 0 0139.371 45H30.85a3.105 3.105 0 01-1.713-.512 3.105 3.105 0 01-1.712.512h-1.712a3.11 3.11 0 01-3.112-3.105V30.819c0-1.72 1.4-3.105 3.112-3.105h1.712c.305 0 .602.045.88.127l3.093-4.62zm-.86 18.675a.308.308 0 00.312.305h8.523a2.019 2.019 0 002.01-1.768l.776-6.375.002-.021.004-.023c.281-1.834-1.145-3.5-3.028-3.5H35.47a1.4 1.4 0 01-1.351-1.762l.508-1.898a1.16 1.16 0 00-1.13-1.453h-.19l-2.72 4.063a.3.3 0 00-.052.166v12.266zm-2.8-11.078a.307.307 0 00-.313-.304h-1.712a.307.307 0 00-.312.304v11.078a.308.308 0 00.312.305h1.712a.308.308 0 00.312-.305V30.817z" fill="#333"/></svg>