<?xml version="1.0" encoding="utf-8"?><svg width="48" height="48" fill="none" xmlns="http://www.w3.org/2000/svg" viewBox="0 0 48 48"><path d="M5.976 33.005a1.34 1.34 0 011.645.972 1.382 1.382 0 01-.807 1.635l9.061 5.352a1.375 1.375 0 01.98-1.533 1.34 1.34 0 011.646.973l.799 3.048c.192.734-.234 1.487-.95 1.684l-2.98.817a1.341 1.341 0 01-1.646-.972 1.383 1.383 0 01.808-1.636l-9.063-5.353a1.374 1.374 0 01-.98 1.533 1.34 1.34 0 01-1.645-.971l-.798-3.049a1.404 1.404 0 01.134-1.043c.178-.316.472-.547.816-.64l2.98-.817zm28.95.972a1.34 1.34 0 011.646-.972l2.98.816c.343.094.637.325.815.64.178.317.226.692.134 1.044l-.798 3.048a1.341 1.341 0 01-1.646.972 1.375 1.375 0 01-.98-1.533l-9.063 5.353c.63.251.987.952.808 1.636a1.34 1.34 0 01-1.645.972l-2.98-.817a1.349 1.349 0 01-.815-.641 1.403 1.403 0 01-.134-1.043l.799-3.048a1.341 1.341 0 011.645-.973c.667.184 1.08.85.98 1.533l9.061-5.353a1.381 1.381 0 01-.806-1.634zM20.763 2.104c.382-.162.82-.135 1.183.08l14.658 8.659c.416.245.672.699.672 1.19V29.35c0 .49-.256.945-.672 1.19l-14.658 8.66a1.317 1.317 0 01-1.343 0L5.944 30.54a1.38 1.38 0 01-.672-1.19V12.033c0-.491.257-.945.672-1.19l14.658-8.659.16-.08zm-11.46 9.929l2.203 1.302c.643.38.864 1.22.493 1.878a1.328 1.328 0 01-1.836.503l-2.203-1.302v14.143l11.971 7.072V21.485l-3.222-1.902a1.393 1.393 0 01-.492-1.879 1.327 1.327 0 011.835-.503l3.223 1.904 11.97-7.072-11.97-7.072-11.971 7.072zm13.315 9.452V35.63l11.971-7.072V14.414l-11.97 7.071zm19.858-10.827c.356 0 .698.145.95.403l2.181 2.232a1.397 1.397 0 010 1.944 1.32 1.32 0 01-1.787.102v10.706a1.321 1.321 0 011.787.103 1.397 1.397 0 010 1.944l-2.18 2.23a1.322 1.322 0 01-1.9 0l-2.181-2.23a1.397 1.397 0 010-1.944 1.32 1.32 0 011.787-.103V15.339a1.32 1.32 0 01-1.787-.102 1.397 1.397 0 010-1.944l2.18-2.232c.252-.258.594-.403.95-.403z" fill="#333"/></svg>