<?xml version="1.0" encoding="utf-8"?><svg width="48" height="48" fill="none" xmlns="http://www.w3.org/2000/svg" viewBox="0 0 48 48"><path d="M29.177 10.462c3.468 0 6.969 2.053 6.969 6.641a1.42 1.42 0 001.434 1.408 1.42 1.42 0 001.434-1.408c0-6.208-4.949-9.457-9.837-9.457-2.57 0-4.985.84-6.8 2.362-2.077 1.744-3.176 4.197-3.176 7.096v3.139c0 .258.073.511.21.732.137.22.333.4.566.518a1.46 1.46 0 001.489-.102c.91-.633 2.774-1.563 3.928-1.353.334.06.559.206.754.49.3.439.378.838.249 1.299-.477 1.7-3.483 3.636-5.267 4.458a1.397 1.397 0 00-.69 1.871 1.437 1.437 0 001.904.678c.594-.272 5.83-2.761 6.815-6.256.353-1.254.133-2.508-.635-3.626a3.96 3.96 0 00-2.624-1.687c-1.31-.235-2.705.136-3.832.603v-.764c0-4.564 3.685-6.642 7.109-6.642z" fill="#333"/><path d="M29.269 2c-4.135 0-8.011 1.343-10.916 3.78-3.305 2.773-5.052 6.69-5.052 11.323a1.42 1.42 0 001.434 1.408 1.42 1.42 0 001.434-1.408c0-8.443 6.791-12.288 13.1-12.288 3.416 0 6.576 1.088 8.899 3.062 2.593 2.206 3.965 5.396 3.965 9.227 0 6.492-2.853 8.634-5.873 10.902-2.483 1.865-5.298 3.978-6.137 8.455-.575 3.067-2.163 6.723-6.458 6.723-3.729 0-6.139-2.539-6.139-6.468a1.42 1.42 0 00-1.434-1.408 1.42 1.42 0 00-1.434 1.408c0 5.466 3.704 9.284 9.007 9.284 4.82 0 8.202-3.29 9.277-9.028.641-3.408 2.689-4.947 5.06-6.728C41.282 27.78 45 24.988 45 17.105 45 6.726 36.846 2 29.269 2zM5.449 20.178a1.453 1.453 0 00-2.027-.002 1.389 1.389 0 00-.003 1.99 6.755 6.755 0 012.041 4.845 6.75 6.75 0 01-2.04 4.84c-.56.55-.56 1.441.002 1.99a1.433 1.433 0 001.012.411c.369 0 .735-.138 1.015-.413 1.857-1.827 2.879-4.252 2.879-6.828 0-2.58-1.022-5.006-2.88-6.832z" fill="#333"/><path d="M7.27 15.514a1.39 1.39 0 00-.003 1.991c2.606 2.566 4.043 5.972 4.043 9.591 0 3.616-1.437 7.021-4.043 9.588a1.39 1.39 0 00.003 1.991 1.434 1.434 0 001.013.41c.369 0 .736-.138 1.015-.411 3.146-3.1 4.879-7.21 4.879-11.577 0-4.37-1.733-8.482-4.879-11.58a1.454 1.454 0 00-2.028-.003z" fill="#333"/></svg>