<?xml version="1.0" encoding="utf-8"?><svg width="48" height="48" fill="none" xmlns="http://www.w3.org/2000/svg" viewBox="0 0 48 48"><path d="M8.519 30.74c0-5.11 4.174-9.253 9.324-9.253h1.436a4.875 4.875 0 011.142-1.962l-2.917-5.016a1.387 1.387 0 01.514-1.908l3.352-1.92-2.112-3.63-1.827 1.047a1.413 1.413 0 01-1.922-.51 1.39 1.39 0 01.515-1.909l3.042-1.744c.001 0 .003 0 .004-.002l.004-.002 3.044-1.744a1.413 1.413 0 011.922.511 1.391 1.391 0 01-.515 1.908l-1.828 1.047 2.111 3.63 3.352-1.92.128-.066c.651-.29 1.43-.05 1.795.577l10.555 18.145c.187.32.237.702.14 1.06a1.399 1.399 0 01-.655.849l-9.141 5.238a1.414 1.414 0 01-1.923-.512l-2.918-5.016a4.923 4.923 0 01-5.861-3.357h-1.437c-3.595 0-6.51 2.892-6.51 6.46 0 2.87 1.89 5.304 4.501 6.144l.185-.358a4.927 4.927 0 014.463-2.818 4.927 4.927 0 014.46 2.818l.348.674h12.784c.777 0 1.407.625 1.407 1.397 0 .77-.63 1.396-1.407 1.396H26.728l1.653 3.212h13.212c.777 0 1.407.626 1.407 1.397 0 .772-.63 1.397-1.407 1.397H6.407A1.402 1.402 0 015 44.603c0-.771.63-1.397 1.407-1.397h6.175l1.961-3.81c-3.52-1.324-6.024-4.697-6.024-8.656zm11.963 5.762c-.855 0-1.594.505-1.927 1.235l-.029.06-2.783 5.41h9.477l-2.783-5.41-.03-.06a2.113 2.113 0 00-1.925-1.235zm5.63-13.619A2.103 2.103 0 0024 20.788a2.103 2.103 0 00-2.111 2.095c0 1.157.945 2.096 2.111 2.096a2.103 2.103 0 002.111-2.096zm2.814 0c0 1.3-.513 2.481-1.348 3.357l2.215 3.808 6.703-3.842-9.148-15.726-6.704 3.841 2.214 3.806A4.975 4.975 0 0124 17.994c2.72 0 4.926 2.19 4.926 4.89z" fill="#333"/></svg>