<?xml version="1.0" encoding="utf-8"?><svg width="48" height="48" fill="none" xmlns="http://www.w3.org/2000/svg" viewBox="0 0 48 48"><path d="M44.71 26.308H3.29c-.713 0-1.29.585-1.29 1.307 0 .723.577 1.308 1.29 1.308h18.433L15.16 40.02c-.515.87.105 1.98 1.106 1.98h15.468c1.001 0 1.62-1.11 1.106-1.98l-6.563-11.097H44.71c.712 0 1.289-.585 1.289-1.308 0-.722-.577-1.307-1.29-1.307zM18.543 39.385L24 30.157l5.458 9.228H18.542zM9.734 23.692c4.265 0 7.735-3.52 7.735-7.846C17.469 11.52 13.999 8 9.734 8 5.47 8 2 11.52 2 15.846c0 4.326 3.47 7.846 7.734 7.846zm0-13.077c2.844 0 5.157 2.347 5.157 5.231s-2.313 5.23-5.157 5.23c-2.843 0-5.156-2.346-5.156-5.23 0-2.884 2.313-5.23 5.156-5.23zm28.532 13.077c4.264 0 7.734-3.52 7.734-7.846C46 11.52 42.53 8 38.266 8 34 8 30.53 11.52 30.53 15.846c0 4.326 3.47 7.846 7.735 7.846zm0-13.077c2.843 0 5.156 2.347 5.156 5.231s-2.313 5.23-5.156 5.23c-2.843 0-5.157-2.346-5.157-5.23 0-2.884 2.313-5.23 5.157-5.23z" fill="#333"/></svg>