<?xml version="1.0" encoding="utf-8"?><svg viewBox="0 0 60 68" xmlns="http://www.w3.org/2000/svg" xmlns:xlink="http://www.w3.org/1999/xlink"><style>:root>svg{display:none}:root>svg:target{display:block}</style><svg viewBox="0 0 48 48" id="ic_01" xmlns="http://www.w3.org/2000/svg"><g clip-path="url(#prefix__clip0_417_3014)"><path d="M35.941 34.737l.223-.12a23.921 23.921 0 008.647-8.105l2.968-4.664-2.382-1.516-2.968 4.665a20.934 20.934 0 01-17.745 9.74 20.935 20.935 0 01-17.744-9.74L5.867 23.31l3.35.695.574-2.765-8.085-1.676-1.677 8.084 2.765.574.701-3.38 1.063 1.67a23.92 23.92 0 008.647 8.105l.223.12H0v9.412h48v-9.412H35.941zm-19.998 2.824h3.745l-.941 3.764h-3.745l.94-3.764zm-3.852 3.764H8.464l.94-3.764h3.628l-.941 3.764zm10.507-3.764h3.745l-.941 3.764h-3.745l.941-3.764zm6.656 0h3.745l-.942 3.764h-3.745l.942-3.764zm6.655 0h3.745l-.941 3.764h-3.745l.941-3.764zm-33.085 0h3.67l-.94 3.764h-2.73v-3.764zm42.352 3.764h-3.553l.941-3.764h2.612v3.764z"/><path d="M24.684 31.914c6.228 0 11.294-5.067 11.294-11.294 0-2.598-1.77-6.08-5.26-10.352a65.344 65.344 0 00-5.063-5.497l-.97-.92-.972.92a65.315 65.315 0 00-5.063 5.497c-3.49 4.271-5.26 7.754-5.26 10.352 0 6.227 5.067 11.294 11.294 11.294zm-3.866-19.837a64.176 64.176 0 013.866-4.294 64.057 64.057 0 013.867 4.294c2.969 3.638 4.604 6.672 4.604 8.543 0 4.67-3.8 8.47-8.47 8.47-4.671 0-8.471-3.8-8.471-8.47 0-1.871 1.635-4.905 4.604-8.543z"/></g></svg><svg viewBox="0 0 48 48" id="ic_02" xmlns="http://www.w3.org/2000/svg"><path d="M44.752 6.03A1.4 1.4 0 0043.4 5c-.268 0-6.615.056-8.284 4.855-1.03 2.961-.004 5.245 1.204 6.45-.259.468-.477.98-.64 1.516a18.197 18.197 0 00-3.29-3.34c.675-2.404.262-6.77-3.801-8.568C27.217 5.308 25.629 5 23.866 5c-6.051 0-12.405 3.584-12.674 3.737a1.4 1.4 0 00-.364 2.133c.084.095.745.851 1.778 1.897C6.71 15.906 3 21.985 3 28.8 3 38.835 11.165 47 21.202 47c10.036 0 18.201-8.165 18.201-18.2 0-2.512-.546-4.945-1.512-7.189.07-1.386.417-3.335.958-4.116.166.018.329.064.497.064 2.327 0 4.465-1.878 5.08-4.466 1.04-4.354.355-6.953.326-7.063zM23.866 7.8c1.37 0 2.579.227 3.59.673 2.138.947 2.459 2.954 2.376 4.291a18.082 18.082 0 00-5.602-1.908 1.4 1.4 0 00-.455 2.764c1.79.294 3.514.927 5.073 1.821-1.284 2.1-2.8 2.691-4.957 2.053-3.494-1.034-7.682-5.02-9.717-7.132 2.127-.997 6.049-2.562 9.692-2.562zM5.8 28.8c0-1.45.207-2.857.584-4.2h9.217c.771 0 1.4.629 1.4 1.4 0 .771-.629 1.4-1.4 1.4h-4.2a1.4 1.4 0 00-1.4 1.4c0 .771-.63 1.4-1.4 1.4H5.87c-.043-.462-.07-.928-.07-1.4zm.597 4.2H8.6a4.207 4.207 0 003.961-2.8h3.04c2.316 0 4.2-1.884 4.2-4.2 0-2.316-1.884-4.2-4.2-4.2H7.472a15.278 15.278 0 017.28-6.978c2.368 2.137 5.465 4.506 8.344 5.357a8.25 8.25 0 002.335.361c2.94 0 4.707-1.856 5.73-3.472A15.408 15.408 0 0136.317 26h-2.514a4.205 4.205 0 00-4.2 4.2v1.4h-2.801a5.606 5.606 0 00-5.6 5.6c0 3.088 2.511 5.6 5.6 5.6h.779a15.29 15.29 0 01-6.38 1.4c-7.034 0-12.969-4.746-14.804-11.2zm25.342 7h-4.937a2.803 2.803 0 01-2.8-2.8c0-1.544 1.256-2.8 2.8-2.8h4.2a1.4 1.4 0 001.4-1.4v-2.8c0-.771.63-1.4 1.4-1.4h2.8c0 4.414-1.875 8.39-4.863 11.2zm9.964-27.555c-.393 1.652-1.922 2.782-3.17 2.093-.345-.192-1.572-1.464-.772-3.763.682-1.963 2.982-2.632 4.424-2.859.05.966 0 2.508-.482 4.53z"/></svg><svg viewBox="0 0 48 48" id="ic_03" xmlns="http://www.w3.org/2000/svg"><g clip-path="url(#prefix__clip0_417_3123)"><path fill-rule="evenodd" clip-rule="evenodd" d="M13.035 34.813A1.464 1.464 0 0113 34.5c0-1.698.43-3.37 1.255-4.875a10.666 10.666 0 013.482-3.76V8.994c0-1.59.662-3.114 1.839-4.238A6.43 6.43 0 0124.014 3h.002c1.664 0 3.26.632 4.438 1.756 1.177 1.124 1.838 2.648 1.838 4.238v16.89a10.661 10.661 0 013.462 3.756c.82 1.5 1.247 3.168 1.246 4.86C35 40.296 30.077 45 24.016 45c-5.953 0-10.809-4.536-10.981-10.187zm7.823-8.364c.052.301.005.61-.132.885a1.529 1.529 0 01-.636.656 7.703 7.703 0 00-2.819 2.633 7.261 7.261 0 00-1.125 3.61c.016.087.025.175.025.267 0 1.988.826 3.894 2.297 5.3 1.471 1.406 3.466 2.198 5.548 2.2 2.08-.003 4.076-.794 5.546-2.2 1.47-1.407 2.296-3.313 2.296-5.3a7.244 7.244 0 00-1.058-3.762 7.69 7.69 0 00-2.89-2.748 1.527 1.527 0 01-.648-.68 1.438 1.438 0 01-.11-.915l-.001-.041V8.994c0-.794-.33-1.556-.918-2.117A3.212 3.212 0 0024.016 6h-.002a3.21 3.21 0 00-2.217.877 2.927 2.927 0 00-.918 2.117v17.215c0 .082-.008.163-.02.24zm4.729 3.807a4.672 4.672 0 012.479 1.97c.558.915.762 1.988.574 3.031a4.461 4.461 0 01-1.6 2.675 4.851 4.851 0 01-6.063.01 4.459 4.459 0 01-1.608-2.681 4.33 4.33 0 01.58-3.04 4.67 4.67 0 012.496-1.964V10.5c0-.398.165-.78.46-1.06a1.61 1.61 0 011.11-.44c.417 0 .817.158 1.111.44.295.28.46.662.46 1.06v19.756z"/><path d="M35.423 17.56c.271.282.64.44 1.022.44h10.11a1.42 1.42 0 001.022-.44A1.53 1.53 0 0048 16.5c0-.398-.152-.78-.423-1.06a1.42 1.42 0 00-1.022-.44h-10.11a1.42 1.42 0 00-1.022.44A1.53 1.53 0 0035 16.5c0 .398.152.78.423 1.06zm0 6c.271.282.64.44 1.022.44h5.776c.384 0 .751-.158 1.022-.44a1.53 1.53 0 00.424-1.06c0-.398-.153-.78-.424-1.06a1.42 1.42 0 00-1.022-.44h-5.776a1.42 1.42 0 00-1.022.44A1.53 1.53 0 0035 22.5c0 .398.152.78.423 1.06zm0-12c.271.282.64.44 1.022.44h5.776c.384 0 .751-.158 1.022-.44a1.53 1.53 0 00.424-1.06c0-.398-.153-.78-.424-1.06A1.42 1.42 0 0042.221 9h-5.776a1.42 1.42 0 00-1.022.44A1.53 1.53 0 0035 10.5c0 .398.152.78.423 1.06zm-35 6c.271.282.639.44 1.022.44h10.107c.383 0 .75-.158 1.022-.44a1.53 1.53 0 00.423-1.06c0-.398-.152-.78-.423-1.06a1.419 1.419 0 00-1.022-.44H1.445c-.383 0-.75.158-1.022.44A1.53 1.53 0 000 16.5c0 .398.152.78.423 1.06zm4.336-6c.27.282.638.44 1.021.44h5.775c.383 0 .75-.158 1.022-.44A1.53 1.53 0 0013 10.5c0-.398-.152-.78-.423-1.06A1.419 1.419 0 0011.555 9H5.78c-.383 0-.75.158-1.021.44a1.53 1.53 0 00-.424 1.06c0 .398.153.78.424 1.06zm0 12c.27.282.638.44 1.021.44h5.775c.383 0 .75-.158 1.022-.44A1.53 1.53 0 0013 22.5c0-.398-.152-.78-.423-1.06a1.419 1.419 0 00-1.022-.44H5.78c-.383 0-.75.158-1.021.44a1.53 1.53 0 00-.424 1.06c0 .398.153.78.424 1.06z"/></g></svg><svg viewBox="0 0 48 48" id="ic_04" xmlns="http://www.w3.org/2000/svg"><g clip-path="url(#clip0_417_3181)"><path fill-rule="evenodd" clip-rule="evenodd" d="M16.066 3.33c6.015-1.213 12.09.99 16.603 5.364 2.949 2.859 3.894 6.885 4.155 9.989.022.262.04.52.053.772 2.058-1.42 5.284-.293 5.512 2.57.144 1.798.295 3.71.411 5.203.11 1.428.2 2.597.2 2.795h-3l-.005-.067-.007-.103-.038-.544a480.83 480.83 0 00-.14-1.849c-.116-1.49-.268-3.4-.411-5.197a.399.399 0 00-.1-.251.548.548 0 00-.27-.154c-.242-.062-.448.014-.577.2l-2.033 2.918a1.5 1.5 0 01-2.71-1.102v-.002l.002-.013.01-.064.036-.272c.03-.243.068-.602.1-1.051.062-.901.095-2.15-.022-3.537-.239-2.828-1.076-5.975-3.254-8.086-3.097-3.002-6.929-4.73-10.81-4.842 2.882 3.52 1.652 8.679-2.41 10.72C12.373 19.231 9.001 24.26 9 30.023c0 5.113 2.712 9.683 6.833 12.392a7.84 7.84 0 01-.294-2.161c0-3.326 2.257-6.26 4.164-8.187a27.363 27.363 0 013.948-3.28l.02-.015.007-.004.003-.002.819 1.257.805-1.266.003.002.007.005.021.013a9.807 9.807 0 01.335.225 26.439 26.439 0 013.622 3.019c1.916 1.922 4.168 4.854 4.168 8.233a7.83 7.83 0 01-.303 2.193 15.475 15.475 0 002.325-1.856 1.5 1.5 0 012.089 2.153C34.246 45.972 29.663 47.972 24.61 48 14.444 48.058 6 39.991 6 30.024c0-6.977 4.086-13 10.015-15.979 2.473-1.242 3.068-4.286 1.333-6.257a14.311 14.311 0 00-1.912-1.807 1.5 1.5 0 01.63-2.65zM24.5 30.025l.805-1.266a1.503 1.503 0 00-1.623.009l.818 1.257zm.008 1.834a24.35 24.35 0 00-2.673 2.32c-1.823 1.842-3.296 4.024-3.296 6.077 0 1.536.62 2.664 1.612 3.444 1.029.809 2.544 1.302 4.349 1.302 1.805 0 3.32-.493 4.349-1.302.992-.78 1.612-1.908 1.612-3.444 0-2.113-1.479-4.296-3.293-6.116a23.44 23.44 0 00-2.66-2.281z"/><path d="M40 29.5a1.5 1.5 0 013 0v1a1.5 1.5 0 01-3 0v-1z"/></g></svg><svg viewBox="0 0 48 48" id="ic_05" xmlns="http://www.w3.org/2000/svg"><path d="M21.188 2.813a4.226 4.226 0 014.011 2.914c-6.22.795-11.043 6.122-11.043 12.554 0 1.489.26 3.424.71 5.35a7.034 7.034 0 00-3.522 6.088c0 3.432 2.472 6.298 5.73 6.91C17.83 41.422 23.17 48 26.811 48c3.694 0 8.994-6.649 9.74-11.37 3.257-.613 5.73-3.479 5.73-6.911 0-2.6-1.42-4.872-3.522-6.089.449-1.925.709-3.86.709-5.349 0-6.548-4.999-11.95-11.38-12.592C27.46 2.452 24.606 0 21.188 0c-3.995 0-6.55 1.238-7.693 1.55A24.549 24.549 0 015.72 2.813v2.813c2.95 0 5.866-.473 8.665-1.406 1.195-.33 3.353-1.407 6.803-1.407zM36.656 18.28c0 1.204-.215 2.83-.578 4.457a7.013 7.013 0 00-7.318 4.278l2.596 1.083A4.209 4.209 0 0135.25 25.5a4.224 4.224 0 014.219 4.219 4.224 4.224 0 01-4.219 4.218h-1.406v1.407c0 4.044-5.176 9.843-7.032 9.843-1.846 0-7.03-5.782-7.03-9.843v-1.407h-1.407a4.224 4.224 0 01-4.219-4.218 4.224 4.224 0 014.219-4.219 4.209 4.209 0 013.894 2.598l2.596-1.082a7.013 7.013 0 00-7.318-4.278c-.363-1.627-.578-3.253-.578-4.457 0-5.428 4.416-9.843 9.843-9.843 5.428 0 9.844 4.415 9.844 9.843z"/></svg><svg viewBox="0 0 48 48" id="ic_06" xmlns="http://www.w3.org/2000/svg"><path d="M29.933 28.85L24.734 3.6a.75.75 0 00-1.468 0l-3.9 18.938-6.136-5.115a.75.75 0 00-1.21.75l3.143 13.2-14.155 12.31a.75.75 0 00.662 1.297L24 39.77l22.33 5.21a.75.75 0 00.662-1.297L29.933 28.85zm-1.175.966l12.256 10.658L24.75 31.8V11.112L28.516 29.4a.75.75 0 00.242.416zm-9.516 0a.75.75 0 00.242-.415l3.766-18.289V31.8L6.985 40.474l12.257-10.658zm-.808-2.752l-3.217-6.032 3.806 3.172-.589 2.86zm-3.606-3.574l2.98 5.586-1.367 1.188-1.613-6.774zM24 38.25a.773.773 0 00-.17.02L6.9 42.218 24 33.1l17.1 9.119-16.928-3.95A.776.776 0 0024 38.25z"/></svg><svg fill="none" viewBox="0 0 14 8" id="ic_arrow-down" xmlns="http://www.w3.org/2000/svg"><path d="M1 1l6 6 6-6" stroke="#1EBC61" stroke-width="2" stroke-linecap="round" stroke-linejoin="round"/></svg><svg fill="none" viewBox="0 0 14 8" id="ic_arrow-down-black" xmlns="http://www.w3.org/2000/svg"><path d="M1 1l6 6 6-6" stroke="#333" stroke-width="2" stroke-linecap="round" stroke-linejoin="round"/></svg><svg fill="none" viewBox="0 0 14 8" id="ic_arrow-down-clr" xmlns="http://www.w3.org/2000/svg"><path d="M1 1l6 6 6-6" stroke="#A5E427" stroke-width="2" stroke-linecap="round" stroke-linejoin="round"/></svg><svg fill="none" viewBox="0 0 32 32" id="ic_catalog" xmlns="http://www.w3.org/2000/svg"><path d="M8 8a1 1 0 011-1h4a1 1 0 011 1v4a1 1 0 01-1 1H9a1 1 0 01-1-1V8zm0 10a1 1 0 011-1h4a1 1 0 011 1v4a1 1 0 01-1 1H9a1 1 0 01-1-1v-4zM18 8a1 1 0 011-1h4a1 1 0 011 1v4a1 1 0 01-1 1h-4a1 1 0 01-1-1V8zm0 10a1 1 0 011-1h4a1 1 0 011 1v4a1 1 0 01-1 1h-4a1 1 0 01-1-1v-4z" stroke="#fff" stroke-width="2"/></svg><svg viewBox="0 0 20 20" id="ic_check-small" xmlns="http://www.w3.org/2000/svg"><path fill-rule="evenodd" clip-rule="evenodd" d="M15.7 6.287a1 1 0 01.013 1.414l-6.875 7a1 1 0 01-1.426 0l-3.125-3.182a1 1 0 011.426-1.402l2.412 2.456 6.162-6.274a1 1 0 011.414-.012z"/></svg><svg viewBox="0 0 24 24" id="ic_dl" xmlns="http://www.w3.org/2000/svg"><path fill-rule="evenodd" clip-rule="evenodd" d="M3 14a1 1 0 011 1v4a1 1 0 001 1h14a1 1 0 001-1v-4a1 1 0 112 0v4a3 3 0 01-3 3H5a3 3 0 01-3-3v-4a1 1 0 011-1z"/><path fill-rule="evenodd" clip-rule="evenodd" d="M6.293 9.293a1 1 0 011.414 0L12 13.586l4.293-4.293a1 1 0 111.414 1.414l-5 5a1 1 0 01-1.414 0l-5-5a1 1 0 010-1.414z"/><path fill-rule="evenodd" clip-rule="evenodd" d="M12 2a1 1 0 011 1v12a1 1 0 11-2 0V3a1 1 0 011-1z"/></svg><svg fill="none" viewBox="0 0 40 40" id="ic_next-slider" xmlns="http://www.w3.org/2000/svg"><g clip-path="url(#mclip0_734_1178)"><path d="M0 20c0 11.046 8.954 20 20 20s20-8.954 20-20S31.046 0 20 0 0 8.954 0 20z" fill="#1EBC61"/><path d="M12.5 20h15m0 0L20 12.5m7.5 7.5L20 27.5" stroke="#fff" stroke-width="2" stroke-linecap="round" stroke-linejoin="round"/></g><defs><clipPath id="mclip0_734_1178"><path fill="#fff" d="M0 0h40v40H0z"/></clipPath></defs></svg><svg fill="none" viewBox="0 0 60 68" id="ic_pin" xmlns="http://www.w3.org/2000/svg"><g clip-path="url(#nclip0_507_5633)"><g filter="url(#nfilter0_f_507_5633)"><path d="M30.51 56.523a.5.5 0 01-.5.477c-.29 0-.51-.21-.52-.477-.145-3.168-1.756-5.217-4.832-6.147C14.53 47.968 7 38.863 7 28 7 15.297 17.297 5 30 5s23 10.297 23 23c0 10.863-7.53 19.968-17.658 22.376-3.076.93-4.687 2.98-4.83 6.147h-.002z" fill="red"/></g><path d="M30.51 56.523a.5.5 0 01-.5.477c-.29 0-.51-.21-.52-.477-.145-3.168-1.756-5.217-4.832-6.147C14.53 47.968 7 38.863 7 28 7 15.297 17.297 5 30 5s23 10.297 23 23c0 10.863-7.53 19.968-17.658 22.376-3.076.93-4.687 2.98-4.83 6.147h-.002z" fill="red"/><path d="M30 68c-2.21 0-4-1.79-4-4s1.79-4 4-4 4 1.79 4 4-1.79 4-4 4z" fill="#fff"/><path d="M30 66a2 2 0 10.09-3.998A2 2 0 0030 66z" fill="#000"/><path fill-rule="evenodd" clip-rule="evenodd" d="M30 34.2V39h11.4a.6.6 0 00.6-.6V24.6a.6.6 0 00-.6-.6h-4.954l-.158 2H40v1h-3.79l-.159 2H40v1h-4.028l-.373 4.715a.303.303 0 01-.323.284.306.306 0 01-.276-.309V18.4a.4.4 0 00-.4-.4H34v-.6a.4.4 0 00-.4-.4H23.4a.4.4 0 00-.4.4v.6h-.6a.4.4 0 00-.4.4v20a.6.6 0 00.6.6H27v-4.8c0-.11.09-.2.2-.2h2.6c.11 0 .2.09.2.2zM25.5 31v-6h2v6h-2zm4-6v6h2v-6h-2zm-4-2v-3h2v3h-2zm4-3v3h2v-3h-2zM37 33v-1h3v1h-3z" fill="#fff"/><path d="M36.525 23l.08-1h2.994c.22 0 .4.18.4.4v.6h-3.474z" fill="#fff"/></g><defs><clipPath id="nclip0_507_5633"><path fill="#fff" d="M0 0h60v68H0z"/></clipPath><filter id="nfilter0_f_507_5633" x="1" y="-1" width="58" height="64" filterUnits="userSpaceOnUse" color-interpolation-filters="sRGB"><feFlood flood-opacity="0" result="BackgroundImageFix"/><feBlend in="SourceGraphic" in2="BackgroundImageFix" result="shape"/><feGaussianBlur stdDeviation="3" result="effect1_foregroundBlur_507_5633"/></filter></defs></svg><svg fill="none" viewBox="0 0 15 18" id="ic_play" xmlns="http://www.w3.org/2000/svg"><path d="M13.286 7.304a2 2 0 010 3.392L3.06 17.087C1.728 17.92 0 16.962 0 15.392V2.607C0 1.038 1.728.08 3.06.912l10.226 6.392z" fill="#fff"/></svg><svg fill="none" viewBox="0 0 40 40" id="ic_prev-slider" xmlns="http://www.w3.org/2000/svg"><g clip-path="url(#pclip0_734_1175)"><path d="M40 20C40 8.954 31.046 0 20 0S0 8.954 0 20s8.954 20 20 20 20-8.954 20-20z" fill="#1EBC61"/><path d="M27.5 20h-15m0 0l7.5 7.5M12.5 20l7.5-7.5" stroke="#fff" stroke-width="2" stroke-linecap="round" stroke-linejoin="round"/></g><defs><clipPath id="pclip0_734_1175"><path fill="#fff" d="M0 0h40v40H0z"/></clipPath></defs></svg><svg viewBox="0 0 16 14" id="ic_tg" xmlns="http://www.w3.org/2000/svg"><path d="M6.279 9.096l-.265 3.723c.379 0 .543-.163.74-.358l1.775-1.697 3.679 2.695c.674.376 1.15.178 1.332-.621l2.415-11.316c.214-.997-.36-1.388-1.018-1.143L.743 5.813c-.969.376-.954.916-.165 1.161l3.629 1.129 8.43-5.274c.396-.263.757-.118.46.145L6.279 9.096z"/></svg><svg viewBox="0 0 22 22" id="ic_tooltip" xmlns="http://www.w3.org/2000/svg"><path fill-rule="evenodd" clip-rule="evenodd" d="M11 2a9 9 0 100 18 9 9 0 000-18zM0 11C0 4.925 4.925 0 11 0s11 4.925 11 11-4.925 11-11 11S0 17.075 0 11z"/><path fill-rule="evenodd" clip-rule="evenodd" d="M11.258 7.024a2 2 0 00-2.225 1.308 1 1 0 11-1.886-.664 4 4 0 017.773 1.333c0 1.53-1.135 2.54-1.945 3.081a8.044 8.044 0 01-1.686.848l-.035.013-.011.003-.004.002h-.002L10.92 12l.316.949a1 1 0 01-.633-1.897H10.6h.002l.016-.006.074-.027a6.051 6.051 0 001.172-.6c.69-.46 1.055-.95 1.055-1.419v-.001a2 2 0 00-1.662-1.975zM10 16a1 1 0 011-1h.01a1 1 0 110 2H11a1 1 0 01-1-1z"/></svg><svg viewBox="0 0 24 24" id="ic_trash" xmlns="http://www.w3.org/2000/svg"><path fill-rule="evenodd" clip-rule="evenodd" d="M2 6a1 1 0 011-1h18a1 1 0 110 2H3a1 1 0 01-1-1z"/><path fill-rule="evenodd" clip-rule="evenodd" d="M10 3a1 1 0 00-1 1v2a1 1 0 01-2 0V4a3 3 0 013-3h4a3 3 0 013 3v2a1 1 0 11-2 0V4a1 1 0 00-1-1h-4zM5 5a1 1 0 011 1v14a1 1 0 001 1h10a1 1 0 001-1V6a1 1 0 112 0v14a3 3 0 01-3 3H7a3 3 0 01-3-3V6a1 1 0 011-1z"/><path fill-rule="evenodd" clip-rule="evenodd" d="M10 10a1 1 0 011 1v6a1 1 0 11-2 0v-6a1 1 0 011-1zM14 10a1 1 0 011 1v6a1 1 0 11-2 0v-6a1 1 0 011-1z"/></svg><svg viewBox="0 0 16 13" id="ic_tw" xmlns="http://www.w3.org/2000/svg"><path d="M16 1.543a6.872 6.872 0 01-1.645 1.696 9.368 9.368 0 01-.376 3.066 9.453 9.453 0 01-1.177 2.517 9.91 9.91 0 01-1.868 2.143c-.724.615-1.597 1.11-2.62 1.482a9.666 9.666 0 01-3.278.548A9.106 9.106 0 010 11.523c.237.027.5.04.792.04a6.42 6.42 0 004.07-1.4 3.214 3.214 0 01-1.908-.65 3.235 3.235 0 01-1.157-1.625c.223.034.43.051.62.051.29 0 .578-.037.862-.112a3.259 3.259 0 01-1.888-1.126A3.201 3.201 0 01.65 4.609v-.04c.46.257.954.395 1.482.416a3.275 3.275 0 01-1.066-1.168A3.195 3.195 0 01.67 2.254c0-.596.149-1.147.447-1.655a9.373 9.373 0 002.985 2.426A9.22 9.22 0 007.878 4.03a3.643 3.643 0 01-.081-.75c0-.908.318-1.68.954-2.316A3.169 3.169 0 0111.076 0c.948 0 1.746.345 2.396 1.036a6.43 6.43 0 002.081-.792 3.184 3.184 0 01-1.441 1.807A6.534 6.534 0 0016 1.543z"/></svg><svg viewBox="0 0 24 24" id="ic_upload" xmlns="http://www.w3.org/2000/svg"><path fill-rule="evenodd" clip-rule="evenodd" d="M11.293 3.293a1 1 0 011.414 0l4.445 4.444a1 1 0 01-1.415 1.415L13 6.414v8.253a1 1 0 11-2 0V6.414L8.263 9.152a1 1 0 11-1.415-1.415l4.445-4.444zM4 13.667a1 1 0 011 1v3.555a.778.778 0 00.778.778h12.444a.778.778 0 00.778-.778v-3.555a1 1 0 112 0v3.555A2.778 2.778 0 0118.222 21H5.778A2.778 2.778 0 013 18.222v-3.555a1 1 0 011-1z"/></svg><svg viewBox="0 0 20 20" id="ic_vb" xmlns="http://www.w3.org/2000/svg"><path d="M17.745 1.948c-.524-.457-2.64-1.914-7.36-1.934 0 0-5.565-.316-8.276 2.043C.602 3.487.07 5.584.013 8.18c-.058 2.597-.128 7.464 4.819 8.784h.004l-.004 2.015s-.033.817.535.98c.684.204 1.088-.417 1.743-1.085.358-.367.852-.906 1.227-1.316 3.386.27 5.985-.348 6.281-.438.684-.21 4.552-.68 5.178-5.546.65-5.023-.313-8.194-2.051-9.627zm.572 9.26c-.531 4.062-3.666 4.32-4.242 4.496-.247.074-2.534.613-5.404.437 0 0-2.142 2.449-2.81 3.086-.218.207-.457.187-.452-.223 0-.27.016-3.347.016-3.347-.004 0-.004 0 0 0-4.193-1.102-3.946-5.246-3.9-7.413.045-2.168.477-3.945 1.754-5.14 2.294-1.973 7.019-1.68 7.019-1.68 3.99.016 5.902 1.156 6.347 1.539 1.47 1.195 2.22 4.054 1.672 8.245zm-5.725-3.156c.016.336-.515.36-.532.024-.045-.86-.469-1.278-1.342-1.324-.354-.02-.322-.524.029-.504 1.149.058 1.787.683 1.845 1.804zm.836.442c.041-1.656-1.05-2.953-3.122-3.098-.35-.023-.313-.527.037-.504 2.389.164 3.662 1.723 3.616 3.613-.004.336-.54.32-.531-.011zm1.936.523c.004.336-.532.34-.532.004-.024-3.183-2.26-4.918-4.975-4.937-.35-.004-.35-.504 0-.504 3.036.02 5.478 2.008 5.507 5.437zm-.466 3.832v.007c-.444.742-1.276 1.563-2.133 1.3l-.008-.01c-.87-.231-2.917-1.231-4.21-2.208-.667-.5-1.277-1.09-1.746-1.656a12.643 12.643 0 01-1.269-1.82c-.877-1.503-1.07-2.175-1.07-2.175-.277-.813.584-1.602 1.37-2.023h.009c.379-.188.741-.125.984.152 0 0 .511.578.73.863.205.266.481.691.626.93.25.425.094.859-.153 1.039l-.494.375c-.251.19-.218.546-.218.546s.733 2.629 3.472 3.293c0 0 .375.031.576-.207l.396-.469c.19-.234.646-.383 1.095-.144.606.324 1.376.828 1.887 1.285.288.222.354.562.156.921z"/></svg><svg viewBox="0 0 19 11" id="ic_vk" xmlns="http://www.w3.org/2000/svg"><path d="M17.57 8.059c-.393-.414-.84-.785-1.27-1.143-.154-.128-.313-.26-.466-.39-.438-.377-.454-.519-.107-.947.24-.295.495-.59.742-.876.224-.26.455-.527.677-.796l.045-.055c.424-.515.862-1.047 1.095-1.689.06-.17.124-.418-.021-.627-.145-.208-.427-.272-.627-.301a1.946 1.946 0 00-.287-.017l-2.774-.002h-.023c-.42 0-.702.174-.864.53a13.74 13.74 0 01-.519 1.05c-.385.688-.875 1.48-1.584 2.141l-.03.028c-.084.08-.179.169-.248.169a.133.133 0 01-.035-.006c-.147-.05-.246-.362-.241-.507v-.006L11.03 1.8l-.003-.03c-.07-.457-.226-.742-.817-.843a.278.278 0 00-.048-.004H7.278c-.47 0-.729.168-.972.419-.066.067-.202.206-.135.376.07.172.292.208.365.22.361.06.564.254.622.593.1.588.113 1.216.039 1.975a1.49 1.49 0 01-.129.514c-.015.032-.07.138-.127.138-.018 0-.07-.006-.165-.063-.224-.135-.387-.327-.578-.564A12.863 12.863 0 014.53 1.817a.986.986 0 00-.92-.592c-.46-.006-.878-.01-1.276-.01-.435 0-.839.004-1.232.012-.337.005-.57.093-.693.263s-.115.394.024.664C1.544 4.32 2.55 5.896 3.697 7.261c.804.956 1.61 1.618 2.536 2.082.977.49 2.071.729 3.345.729.145 0 .294-.003.445-.01.74-.031 1.015-.266 1.05-.9.016-.323.057-.662.238-.951.114-.183.22-.183.256-.183.067 0 .151.028.241.079.161.092.3.216.413.324l.317.31c.228.224.464.456.71.675.538.481 1.132.693 1.813.647h2.56a.755.755 0 00.602-.34c.16-.248.157-.564-.008-.847a4.587 4.587 0 00-.645-.817z"/></svg><svg viewBox="0 0 16 17" id="ic_wa" xmlns="http://www.w3.org/2000/svg"><path d="M9.719 9.385c.27-.34.451-.51.541-.51.09 0 .428.153 1.01.458.591.306.904.49.938.552.014.035.021.087.021.157 0 .229-.059.493-.177.791-.111.271-.358.5-.74.688-.381.18-.736.27-1.062.27-.396 0-1.056-.215-1.98-.645a5.945 5.945 0 01-1.77-1.23C6 9.41 5.486 8.768 4.958 7.99c-.5-.743-.746-1.417-.74-2.021v-.084c.022-.632.279-1.18.772-1.645a.788.788 0 01.541-.23c.042 0 .104.007.188.021.083.007.15.01.198.01.132 0 .222.025.27.074.056.041.112.135.167.28.056.14.17.445.344.918.174.472.26.732.26.78 0 .147-.121.348-.364.605-.236.25-.354.41-.354.48 0 .048.017.1.052.155.236.507.59.983 1.062 1.427.39.368.913.72 1.573 1.053.083.048.16.072.23.072.103 0 .29-.166.562-.5zm-1.573 5.01a6.33 6.33 0 002.531-.52 6.581 6.581 0 002.094-1.396 6.613 6.613 0 001.396-2.083c.347-.813.52-1.66.52-2.542a6.33 6.33 0 00-.52-2.531 6.582 6.582 0 00-1.396-2.094 6.581 6.581 0 00-2.094-1.396 6.329 6.329 0 00-2.531-.52c-.882 0-1.73.173-2.542.52-.805.348-1.5.813-2.083 1.396a6.582 6.582 0 00-1.396 2.094 6.329 6.329 0 00-.52 2.531c0 1.41.416 2.688 1.25 3.833l-.824 2.428 2.521-.803a6.406 6.406 0 003.594 1.084zM5.094.626A7.669 7.669 0 018.146 0c1.062 0 2.076.208 3.041.625a7.918 7.918 0 012.51 1.677 7.918 7.918 0 011.678 2.51c.417.966.625 1.98.625 3.042 0 1.063-.208 2.08-.625 3.052a7.947 7.947 0 01-1.677 2.5 7.916 7.916 0 01-2.51 1.677 7.594 7.594 0 01-3.042.625 7.735 7.735 0 01-3.802-.979L0 16.125l1.417-4.219A7.666 7.666 0 01.292 7.854c0-1.062.208-2.076.625-3.042a7.917 7.917 0 011.677-2.51 7.948 7.948 0 012.5-1.677z"/></svg><svg fill="none" viewBox="0 0 21 20" id="ic_zoom" xmlns="http://www.w3.org/2000/svg"><path d="M19.666 19l-4.35-4.35M9.666 6v6m-3-3h6m5 0a8 8 0 11-16 0 8 8 0 0116 0z" stroke="#fff" stroke-width="2" stroke-linecap="round" stroke-linejoin="round"/></svg></svg>